<?xml version="1.0" encoding="utf-8"?>
<!-- Generator: Adobe Illustrator 15.1.0, SVG Export Plug-In . SVG Version: 6.00 Build 0)  -->
<!DOCTYPE svg PUBLIC "-//W3C//DTD SVG 1.1//EN" "http://www.w3.org/Graphics/SVG/1.1/DTD/svg11.dtd">
<svg version="1.1" id="Layer_1" xmlns="http://www.w3.org/2000/svg" xmlns:xlink="http://www.w3.org/1999/xlink" x="0px" y="0px"
	 width="1280px" height="377.895px" viewBox="0 36.974 1280 377.895" enable-background="new 0 36.974 1280 377.895"
	 xml:space="preserve">
<linearGradient id="SVGID_1_" gradientUnits="userSpaceOnUse" x1="193.0967" y1="-263.8276" x2="1450.7931" y2="172.6429" gradientTransform="matrix(1 0 0 -1 -181 180)">
	<stop  offset="0" style="stop-color:#F8AD9E"/>
	<stop  offset="1" style="stop-color:#FFF3BF"/>
</linearGradient>
<rect y="36.974" fill="url(#SVGID_1_)" width="1280" height="377.895"/>
<g>
	<g enable-background="new    ">
		<path fill="#660000" d="M41.427,319.244l3.035-5.737l7.739-15.128l0.901-1.901l1.936,0.017c0.601,0,1.252-0.005,1.953-0.017
			l2.884,8.173l5.335,14.594l-1.584-0.033c-0.301,0-0.896,0.011-1.785,0.033c-0.3-1.067-0.797-2.613-1.491-4.637
			c-0.694-2.023-1.28-3.663-1.757-4.92H49.48l-2.416,4.986l-2.132,4.57l-1.711-0.033C42.942,319.211,42.344,319.222,41.427,319.244z
			 M50.463,307.485h7.497l-3.098-8.822L50.463,307.485z"/>
		<path fill="#660000" d="M76.736,319.244l0.333-4.486l0.383-8.289l0.166-6.972c0.022-1.412,0.033-2.419,0.033-3.02
			c1.334,0.022,2.441,0.033,3.32,0.033c0.756,0,1.593-0.011,2.511-0.033c0.917-0.021,1.67-0.033,2.26-0.033
			c1.034,0,1.977,0.072,2.827,0.217s1.613,0.476,2.286,0.992c0.673,0.518,1.167,1.118,1.484,1.802s0.476,1.459,0.476,2.326
			c0,0.834-0.125,1.607-0.375,2.318c-0.25,0.712-0.617,1.357-1.101,1.935c-0.483,0.579-1.059,1.051-1.726,1.418
			c-0.511,0.278-1.15,0.506-1.917,0.684c-0.511,0.111-1.211,0.217-2.101,0.317l2.934,4.687l3.035,4.653
			c0.211,0.323,0.517,0.807,0.917,1.451c-0.863-0.022-1.438-0.033-1.726-0.033c-0.31,0-0.902,0.011-1.776,0.033l-1.204-2.285
			c-0.246-0.444-0.491-0.884-0.735-1.317c-0.246-0.434-0.513-0.9-0.803-1.401l-3.778-6.154c-0.156-0.244-0.413-0.673-0.769-1.284
			c0.856,0.156,1.612,0.233,2.268,0.233c1.112,0,2.121-0.184,3.027-0.55c0.906-0.367,1.606-0.937,2.102-1.71
			c0.495-0.772,0.742-1.632,0.742-2.577c0-0.511-0.078-0.986-0.233-1.426c-0.156-0.439-0.403-0.809-0.742-1.109
			c-0.339-0.3-0.673-0.517-1.001-0.65c-0.328-0.133-0.75-0.233-1.268-0.3c-0.517-0.067-1.065-0.101-1.643-0.101l-2.369,0.033
			c-1.023,0-1.673-0.005-1.951-0.017c-0.344,7.473-0.554,14.344-0.631,20.615l-1.636-0.033
			C78.11,319.211,77.57,319.222,76.736,319.244z"/>
		<path fill="#660000" d="M95.816,319.244l0.289-4.203l0.323-7.172l0.136-5.521l1.536,0.017l1.502-0.017
			c-0.125,1.734-0.238,3.55-0.34,5.445c-0.102,1.896-0.184,3.967-0.247,6.213s-0.094,3.992-0.094,5.237
			c-0.701-0.022-1.202-0.033-1.502-0.033C97.141,319.211,96.606,319.222,95.816,319.244z M96.583,298.713
			c0.033-1.045,0.05-1.835,0.05-2.368c0.611,0.022,1.151,0.033,1.618,0.033c0.589,0,1.123-0.011,1.601-0.033
			c-0.022,0.345-0.056,1.134-0.1,2.368c-0.601-0.011-1.118-0.017-1.551-0.017S97.228,298.702,96.583,298.713z"/>
		<path fill="#660000" d="M115.847,316.709c-0.022,0.178-0.081,0.509-0.175,0.992c-0.095,0.483-0.175,0.959-0.242,1.426
			c-0.812,0.189-1.593,0.317-2.344,0.384c-0.75,0.067-1.409,0.101-1.976,0.101c-1.201,0-2.31-0.161-3.328-0.484
			c-1.017-0.322-1.904-0.853-2.66-1.593c-0.756-0.739-1.312-1.656-1.668-2.752c-0.356-1.095-0.534-2.248-0.534-3.461
			c0-1.634,0.289-3.186,0.867-4.653c0.578-1.467,1.49-2.618,2.735-3.452s2.941-1.251,5.087-1.251c1.579,0,3.119,0.212,4.62,0.634
			c0.067,0.945,0.128,1.724,0.184,2.335c-1.057-0.333-1.918-0.559-2.585-0.675c-0.667-0.117-1.284-0.176-1.851-0.176
			c-0.979,0-1.854,0.178-2.627,0.534c-0.773,0.355-1.432,0.861-1.977,1.518s-0.937,1.435-1.176,2.335s-0.358,1.818-0.358,2.752
			c0,1.257,0.194,2.357,0.583,3.303s1.07,1.676,2.043,2.193c0.973,0.517,2.065,0.775,3.277,0.775
			C112.923,317.493,114.291,317.231,115.847,316.709z"/>
		<path fill="#660000" d="M133.376,316.592c-0.134,0.612-0.267,1.391-0.4,2.335c-1.067,0.268-1.993,0.448-2.777,0.543
			c-0.784,0.094-1.565,0.142-2.344,0.142c-1.39,0-2.638-0.167-3.744-0.501c-1.106-0.333-2.054-0.914-2.844-1.742
			s-1.356-1.776-1.701-2.844s-0.517-2.196-0.517-3.386c0-1.657,0.317-3.194,0.951-4.612c0.634-1.417,1.587-2.532,2.86-3.344
			c1.273-0.812,2.888-1.218,4.845-1.218c1.012,0,1.979,0.147,2.902,0.442c0.922,0.295,1.69,0.742,2.301,1.343
			c0.611,0.6,1.084,1.343,1.418,2.227s0.5,1.849,0.5,2.894c0,0.4-0.033,0.789-0.1,1.167h-12.726
			c-0.044,0.612-0.067,1.079-0.067,1.401c0,1.168,0.245,2.243,0.734,3.228c0.489,0.983,1.212,1.729,2.168,2.234
			c0.956,0.507,2.057,0.759,3.302,0.759C129.574,317.659,131.319,317.304,133.376,316.592z M122.135,308.653h9.94
			c-0.011-0.7-0.056-1.245-0.133-1.635c-0.078-0.389-0.223-0.792-0.434-1.209c-0.211-0.417-0.498-0.778-0.859-1.084
			s-0.795-0.539-1.301-0.701c-0.506-0.16-1.054-0.241-1.643-0.241c-0.634,0-1.237,0.089-1.81,0.267s-1.079,0.423-1.518,0.734
			c-0.439,0.311-0.812,0.675-1.118,1.092c-0.306,0.417-0.534,0.82-0.684,1.209C122.427,307.475,122.279,307.997,122.135,308.653z"/>
		<path fill="#660000" d="M147.398,296.478l1.654,0.017l1.62-0.017l-0.751,12.726l-0.05,1.552v0.316
			c0,1.546,0.228,2.744,0.684,3.595s1.182,1.509,2.177,1.977c0.995,0.467,2.254,0.7,3.778,0.7c1.023,0,1.968-0.134,2.836-0.4
			c0.723-0.233,1.337-0.545,1.843-0.934c0.506-0.39,0.926-0.867,1.259-1.435c0.312-0.545,0.534-1.162,0.667-1.852
			c0.155-0.867,0.294-2.379,0.416-4.536l0.298-5.371c0.088-1.979,0.149-4.092,0.182-6.338l1.721,0.017l1.553-0.017l-0.486,7.855
			l-0.302,6.505c-0.1,1.513-0.261,2.686-0.483,3.52c-0.167,0.59-0.411,1.146-0.734,1.668c-0.289,0.467-0.645,0.884-1.067,1.251
			c-0.5,0.444-1.106,0.84-1.818,1.184c-0.756,0.356-1.556,0.623-2.401,0.801c-1.211,0.233-2.468,0.351-3.769,0.351
			c-1.267,0-2.451-0.128-3.552-0.384c-0.956-0.223-1.834-0.562-2.635-1.018s-1.439-0.973-1.917-1.551
			c-0.4-0.467-0.717-1.057-0.95-1.769c-0.267-0.8-0.4-1.685-0.4-2.651c0-1.034,0.041-2.219,0.124-3.553s0.188-3.347,0.314-6.038
			C147.335,299.958,147.398,297.901,147.398,296.478z"/>
		<path fill="#660000" d="M170.92,319.244c0.532-6.972,0.808-12.604,0.831-16.896l1.503,0.017c0.367,0,0.851-0.006,1.453-0.017
			l-0.221,3.336c0.278-0.467,0.5-0.826,0.667-1.076c0.167-0.25,0.389-0.514,0.667-0.792c0.278-0.278,0.606-0.536,0.984-0.775
			c0.378-0.239,0.823-0.439,1.335-0.601s1.031-0.28,1.56-0.358s1.054-0.117,1.577-0.117c0.957,0,1.88,0.117,2.77,0.351
			s1.621,0.614,2.194,1.143s0.957,1.12,1.151,1.776c0.195,0.656,0.292,1.362,0.292,2.118c0,0.145-0.006,0.423-0.017,0.834
			c-0.011,0.411-0.033,0.95-0.066,1.617l-0.331,6.988c-0.022,0.668-0.039,1.484-0.049,2.452c-0.501-0.022-0.975-0.033-1.42-0.033
			c-0.546,0-1.058,0.011-1.537,0.033c0.112-1.346,0.196-2.641,0.252-3.886l0.219-3.887c0.067-1.334,0.101-2.34,0.101-3.019
			c0-0.979-0.167-1.76-0.501-2.344c-0.334-0.583-0.868-1.034-1.603-1.351c-0.735-0.317-1.559-0.476-2.472-0.476
			c-1.292,0-2.399,0.306-3.323,0.918c-0.846,0.566-1.503,1.373-1.971,2.418c-0.323,0.745-0.551,1.846-0.685,3.303
			c-0.169,1.745-0.288,4.52-0.356,8.322c-0.62-0.022-1.102-0.033-1.445-0.033C172.138,319.211,171.618,319.222,170.92,319.244z"/>
		<path fill="#660000" d="M191.702,319.244l0.289-4.203l0.323-7.172l0.136-5.521l1.536,0.017l1.502-0.017
			c-0.125,1.734-0.238,3.55-0.34,5.445c-0.102,1.896-0.184,3.967-0.247,6.213s-0.094,3.992-0.094,5.237
			c-0.701-0.022-1.202-0.033-1.502-0.033C193.026,319.211,192.492,319.222,191.702,319.244z M192.469,298.713
			c0.033-1.045,0.05-1.835,0.05-2.368c0.611,0.022,1.151,0.033,1.618,0.033c0.589,0,1.123-0.011,1.601-0.033
			c-0.022,0.345-0.056,1.134-0.1,2.368c-0.601-0.011-1.118-0.017-1.551-0.017S193.114,298.702,192.469,298.713z"/>
		<path fill="#660000" d="M203.817,319.244l-0.568-1.685c-0.189-0.545-0.634-1.784-1.335-3.72l-4.191-11.491
			c0.678,0.011,1.212,0.017,1.602,0.017c0.422,0,0.922-0.006,1.501-0.017l0.351,1.168c0.1,0.333,0.272,0.867,0.518,1.601
			l3.926,11.625L210.908,304l0.632-1.651c0.658,0.011,1.182,0.017,1.572,0.017c0.39,0,0.914-0.006,1.572-0.017l-2.166,4.653
			l-4.349,9.707l-1.066,2.535c-0.689-0.022-1.229-0.033-1.618-0.033C205.084,319.211,204.528,319.222,203.817,319.244z"/>
		<path fill="#660000" d="M229.946,316.592c-0.134,0.612-0.267,1.391-0.4,2.335c-1.067,0.268-1.993,0.448-2.777,0.543
			c-0.784,0.094-1.565,0.142-2.344,0.142c-1.39,0-2.638-0.167-3.744-0.501c-1.106-0.333-2.054-0.914-2.844-1.742
			s-1.356-1.776-1.701-2.844s-0.517-2.196-0.517-3.386c0-1.657,0.317-3.194,0.951-4.612c0.634-1.417,1.587-2.532,2.86-3.344
			c1.273-0.812,2.888-1.218,4.845-1.218c1.012,0,1.979,0.147,2.902,0.442c0.922,0.295,1.69,0.742,2.301,1.343
			c0.611,0.6,1.084,1.343,1.418,2.227s0.5,1.849,0.5,2.894c0,0.4-0.033,0.789-0.1,1.167h-12.726
			c-0.044,0.612-0.067,1.079-0.067,1.401c0,1.168,0.245,2.243,0.734,3.228c0.489,0.983,1.212,1.729,2.168,2.234
			c0.956,0.507,2.057,0.759,3.302,0.759C226.144,317.659,227.889,317.304,229.946,316.592z M218.705,308.653h9.94
			c-0.011-0.7-0.056-1.245-0.133-1.635c-0.078-0.389-0.223-0.792-0.434-1.209c-0.211-0.417-0.498-0.778-0.859-1.084
			s-0.795-0.539-1.301-0.701c-0.506-0.16-1.054-0.241-1.643-0.241c-0.634,0-1.237,0.089-1.81,0.267s-1.079,0.423-1.518,0.734
			c-0.439,0.311-0.812,0.675-1.118,1.092c-0.306,0.417-0.534,0.82-0.684,1.209C218.997,307.475,218.849,307.997,218.705,308.653z"/>
		<path fill="#660000" d="M234.199,319.244c0.4-6.416,0.6-11.536,0.6-15.361l-0.017-1.534c0.567,0.011,1.035,0.017,1.401,0.017
			c0.423,0,0.896-0.006,1.418-0.017l-0.133,2.769c0.412-0.689,0.776-1.209,1.093-1.56c0.317-0.35,0.675-0.639,1.075-0.867
			c0.4-0.228,0.854-0.405,1.359-0.533s1.031-0.192,1.576-0.192c0.467,0,0.928,0.056,1.384,0.167c0.011,0.733,0.05,1.557,0.117,2.469
			c-0.689-0.189-1.306-0.284-1.851-0.284c-0.656,0-1.245,0.108-1.768,0.325s-0.992,0.545-1.409,0.984s-0.758,0.965-1.025,1.576
			c-0.222,0.489-0.392,1.123-0.508,1.901s-0.208,2.196-0.275,4.253c-0.044,1.501-0.066,3.092-0.066,4.771v1.117
			c-0.601-0.022-1.085-0.033-1.452-0.033C235.384,319.211,234.877,319.222,234.199,319.244z"/>
		<path fill="#660000" d="M245.407,318.927l-0.1-1.226c0-0.134-0.044-0.56-0.133-1.275c1.712,0.745,3.292,1.117,4.737,1.117
			c0.756,0,1.396-0.1,1.918-0.299c0.522-0.2,0.915-0.496,1.176-0.89s0.392-0.801,0.392-1.222c0-0.232-0.036-0.466-0.108-0.698
			s-0.181-0.457-0.325-0.673s-0.358-0.454-0.642-0.715s-0.873-0.752-1.768-1.475s-1.573-1.287-2.035-1.693
			c-0.461-0.405-0.856-0.822-1.184-1.251c-0.328-0.428-0.57-0.858-0.726-1.292c-0.156-0.434-0.233-0.873-0.233-1.318
			c0-0.711,0.225-1.4,0.675-2.067c0.45-0.668,1.101-1.165,1.951-1.493c0.851-0.328,1.849-0.492,2.994-0.492
			c1.278,0,2.685,0.15,4.22,0.45c0.044,0.867,0.1,1.663,0.167,2.386c-1.245-0.512-2.474-0.768-3.686-0.768
			c-0.656,0-1.265,0.086-1.826,0.259c-0.562,0.172-0.973,0.431-1.234,0.775s-0.392,0.723-0.392,1.134
			c0,0.268,0.044,0.523,0.133,0.768c0.089,0.244,0.248,0.509,0.476,0.792c0.228,0.283,0.503,0.564,0.825,0.843
			c0.323,0.277,0.965,0.8,1.927,1.567c0.961,0.768,1.62,1.334,1.976,1.701s0.662,0.745,0.917,1.134
			c0.256,0.39,0.442,0.776,0.559,1.159c0.117,0.384,0.175,0.776,0.175,1.177c0,0.778-0.231,1.501-0.692,2.168
			s-1.148,1.184-2.06,1.551c-0.912,0.367-1.935,0.551-3.069,0.551c-0.479,0-1.04-0.031-1.685-0.092
			c-0.645-0.062-1.192-0.134-1.643-0.217C246.633,319.219,246.074,319.094,245.407,318.927z"/>
		<path fill="#660000" d="M259.834,319.244l0.289-4.203l0.323-7.172l0.136-5.521l1.536,0.017l1.502-0.017
			c-0.125,1.734-0.238,3.55-0.34,5.445c-0.102,1.896-0.184,3.967-0.247,6.213s-0.094,3.992-0.094,5.237
			c-0.701-0.022-1.202-0.033-1.502-0.033C261.159,319.211,260.625,319.222,259.834,319.244z M260.602,298.713
			c0.033-1.045,0.05-1.835,0.05-2.368c0.611,0.022,1.151,0.033,1.618,0.033c0.589,0,1.123-0.011,1.601-0.033
			c-0.022,0.345-0.056,1.134-0.1,2.368c-0.601-0.011-1.118-0.017-1.551-0.017S261.246,298.702,260.602,298.713z"/>
		<path fill="#660000" d="M275.962,317.043c-0.123,0.545-0.256,1.268-0.4,2.168c-0.756,0.178-1.357,0.289-1.801,0.333
			c-0.445,0.045-0.868,0.067-1.268,0.067c-0.99,0-1.788-0.125-2.394-0.376c-0.606-0.25-1.07-0.65-1.393-1.2
			c-0.323-0.551-0.484-1.298-0.484-2.243c0-0.123,0.005-0.34,0.017-0.65c0.011-0.312,0.068-1.396,0.169-3.253l0.408-7.472h-2.229
			c0.044-0.467,0.083-1.135,0.117-2.002h2.274c0.056-0.622,0.112-1.685,0.168-3.186c1.042-0.2,1.924-0.389,2.645-0.566
			c-0.077,1.646-0.121,2.896-0.132,3.752h4.635c-0.056,0.701-0.089,1.368-0.1,2.002h-4.618l-0.445,9.39l-0.016,0.718
			c0,0.812,0.091,1.42,0.274,1.826s0.458,0.697,0.824,0.875c0.367,0.179,0.75,0.268,1.149,0.268c0.278,0,0.578-0.022,0.899-0.067
			C274.585,317.382,275.152,317.254,275.962,317.043z"/>
		<path fill="#660000" d="M275.646,326.967c-0.078-0.939-0.172-1.734-0.284-2.386c0.557,0.268,1.074,0.447,1.553,0.542
			s0.885,0.143,1.219,0.143c0.434,0,0.857-0.079,1.269-0.235c0.412-0.156,0.746-0.363,1.001-0.62s0.526-0.612,0.81-1.064
			c0.284-0.453,0.584-0.983,0.902-1.592s0.622-1.289,0.912-2.041l-3.559-10.125l-2.606-7.239c0.811,0.022,1.35,0.033,1.616,0.033
			c0.312,0,0.816-0.011,1.517-0.033c0.178,0.778,0.329,1.372,0.451,1.783c0.123,0.412,0.39,1.251,0.803,2.517l2.524,7.651
			c0.279,0.866,0.557,1.8,0.836,2.8l1.887-4.601l3.49-8.15c0.1-0.244,0.197-0.497,0.292-0.758c0.094-0.262,0.242-0.676,0.442-1.242
			c0.708,0.022,1.2,0.033,1.477,0.033c0.232,0,0.747-0.011,1.543-0.033c-0.434,0.989-1.483,3.295-3.15,6.917l-6.182,13.751
			c-0.434,0.922-0.829,1.622-1.185,2.1c-0.29,0.378-0.602,0.706-0.935,0.983c-0.267,0.233-0.568,0.434-0.901,0.601
			c-0.412,0.2-0.857,0.355-1.335,0.467c-0.523,0.11-1.058,0.166-1.603,0.166C277.593,327.333,276.658,327.211,275.646,326.967z"/>
		<path fill="#660000" d="M302.915,318.927l-0.1-1.226c0-0.134-0.044-0.56-0.133-1.275c1.712,0.745,3.292,1.117,4.737,1.117
			c0.756,0,1.396-0.1,1.918-0.299c0.522-0.2,0.915-0.496,1.176-0.89s0.392-0.801,0.392-1.222c0-0.232-0.036-0.466-0.108-0.698
			s-0.181-0.457-0.325-0.673s-0.358-0.454-0.642-0.715s-0.873-0.752-1.768-1.475s-1.573-1.287-2.035-1.693
			c-0.461-0.405-0.856-0.822-1.184-1.251c-0.328-0.428-0.57-0.858-0.726-1.292c-0.156-0.434-0.233-0.873-0.233-1.318
			c0-0.711,0.225-1.4,0.675-2.067c0.45-0.668,1.101-1.165,1.951-1.493c0.851-0.328,1.849-0.492,2.994-0.492
			c1.278,0,2.685,0.15,4.22,0.45c0.044,0.867,0.1,1.663,0.167,2.386c-1.245-0.512-2.474-0.768-3.686-0.768
			c-0.656,0-1.265,0.086-1.826,0.259c-0.562,0.172-0.973,0.431-1.234,0.775s-0.392,0.723-0.392,1.134
			c0,0.268,0.044,0.523,0.133,0.768c0.089,0.244,0.248,0.509,0.476,0.792c0.228,0.283,0.503,0.564,0.825,0.843
			c0.323,0.277,0.965,0.8,1.927,1.567c0.961,0.768,1.62,1.334,1.976,1.701s0.662,0.745,0.917,1.134
			c0.256,0.39,0.442,0.776,0.559,1.159c0.117,0.384,0.175,0.776,0.175,1.177c0,0.778-0.231,1.501-0.692,2.168
			s-1.148,1.184-2.06,1.551c-0.912,0.367-1.935,0.551-3.069,0.551c-0.479,0-1.04-0.031-1.685-0.092
			c-0.645-0.062-1.192-0.134-1.643-0.217C304.141,319.219,303.583,319.094,302.915,318.927z"/>
		<path fill="#660000" d="M331.085,316.592c-0.134,0.612-0.267,1.391-0.4,2.335c-1.067,0.268-1.993,0.448-2.777,0.543
			c-0.784,0.094-1.565,0.142-2.344,0.142c-1.39,0-2.638-0.167-3.744-0.501c-1.106-0.333-2.054-0.914-2.844-1.742
			s-1.356-1.776-1.701-2.844s-0.517-2.196-0.517-3.386c0-1.657,0.317-3.194,0.951-4.612c0.634-1.417,1.587-2.532,2.86-3.344
			c1.273-0.812,2.888-1.218,4.845-1.218c1.012,0,1.979,0.147,2.902,0.442c0.922,0.295,1.69,0.742,2.301,1.343
			c0.611,0.6,1.084,1.343,1.418,2.227s0.5,1.849,0.5,2.894c0,0.4-0.033,0.789-0.1,1.167H319.71
			c-0.044,0.612-0.067,1.079-0.067,1.401c0,1.168,0.245,2.243,0.734,3.228c0.489,0.983,1.212,1.729,2.168,2.234
			c0.956,0.507,2.057,0.759,3.302,0.759C327.283,317.659,329.028,317.304,331.085,316.592z M319.844,308.653h9.94
			c-0.011-0.7-0.056-1.245-0.133-1.635c-0.078-0.389-0.223-0.792-0.434-1.209c-0.211-0.417-0.498-0.778-0.859-1.084
			s-0.795-0.539-1.301-0.701c-0.506-0.16-1.054-0.241-1.643-0.241c-0.634,0-1.237,0.089-1.81,0.267s-1.079,0.423-1.518,0.734
			c-0.439,0.311-0.812,0.675-1.118,1.092c-0.306,0.417-0.534,0.82-0.684,1.209C320.136,307.475,319.988,307.997,319.844,308.653z"/>
		<path fill="#660000" d="M335.338,319.244c0.4-6.416,0.6-11.536,0.6-15.361l-0.017-1.534c0.567,0.011,1.035,0.017,1.401,0.017
			c0.423,0,0.896-0.006,1.418-0.017l-0.133,2.769c0.412-0.689,0.776-1.209,1.093-1.56c0.317-0.35,0.675-0.639,1.075-0.867
			c0.4-0.228,0.854-0.405,1.359-0.533s1.031-0.192,1.576-0.192c0.467,0,0.928,0.056,1.384,0.167c0.011,0.733,0.05,1.557,0.117,2.469
			c-0.689-0.189-1.306-0.284-1.851-0.284c-0.656,0-1.245,0.108-1.768,0.325s-0.992,0.545-1.409,0.984s-0.758,0.965-1.025,1.576
			c-0.222,0.489-0.392,1.123-0.508,1.901s-0.208,2.196-0.275,4.253c-0.044,1.501-0.066,3.092-0.066,4.771v1.117
			c-0.601-0.022-1.085-0.033-1.452-0.033C336.523,319.211,336.017,319.222,335.338,319.244z"/>
		<path fill="#660000" d="M351.84,319.244l-0.568-1.685c-0.189-0.545-0.634-1.784-1.335-3.72l-4.191-11.491
			c0.678,0.011,1.212,0.017,1.602,0.017c0.422,0,0.922-0.006,1.501-0.017l0.351,1.168c0.1,0.333,0.272,0.867,0.518,1.601
			l3.926,11.625L358.932,304l0.632-1.651c0.658,0.011,1.182,0.017,1.572,0.017c0.39,0,0.914-0.006,1.572-0.017l-2.166,4.653
			l-4.349,9.707l-1.066,2.535c-0.689-0.022-1.229-0.033-1.618-0.033C353.108,319.211,352.552,319.222,351.84,319.244z"/>
		<path fill="#660000" d="M377.969,316.592c-0.134,0.612-0.267,1.391-0.4,2.335c-1.067,0.268-1.993,0.448-2.777,0.543
			c-0.784,0.094-1.565,0.142-2.344,0.142c-1.39,0-2.638-0.167-3.744-0.501c-1.106-0.333-2.054-0.914-2.844-1.742
			s-1.356-1.776-1.701-2.844s-0.517-2.196-0.517-3.386c0-1.657,0.317-3.194,0.951-4.612c0.634-1.417,1.587-2.532,2.86-3.344
			c1.273-0.812,2.888-1.218,4.845-1.218c1.012,0,1.979,0.147,2.902,0.442c0.922,0.295,1.69,0.742,2.301,1.343
			c0.611,0.6,1.084,1.343,1.418,2.227s0.5,1.849,0.5,2.894c0,0.4-0.033,0.789-0.1,1.167h-12.726
			c-0.044,0.612-0.067,1.079-0.067,1.401c0,1.168,0.245,2.243,0.734,3.228c0.489,0.983,1.212,1.729,2.168,2.234
			c0.956,0.507,2.057,0.759,3.302,0.759C374.167,317.659,375.912,317.304,377.969,316.592z M366.728,308.653h9.94
			c-0.011-0.7-0.056-1.245-0.133-1.635c-0.078-0.389-0.223-0.792-0.434-1.209c-0.211-0.417-0.498-0.778-0.859-1.084
			s-0.795-0.539-1.301-0.701c-0.506-0.16-1.054-0.241-1.643-0.241c-0.634,0-1.237,0.089-1.81,0.267s-1.079,0.423-1.518,0.734
			c-0.439,0.311-0.812,0.675-1.118,1.092c-0.306,0.417-0.534,0.82-0.684,1.209C367.02,307.475,366.872,307.997,366.728,308.653z"/>
		<path fill="#660000" d="M382.222,319.244c0.4-6.416,0.6-11.536,0.6-15.361l-0.017-1.534c0.567,0.011,1.035,0.017,1.401,0.017
			c0.423,0,0.896-0.006,1.418-0.017l-0.133,2.769c0.412-0.689,0.776-1.209,1.093-1.56c0.317-0.35,0.675-0.639,1.075-0.867
			c0.4-0.228,0.854-0.405,1.359-0.533s1.031-0.192,1.576-0.192c0.467,0,0.928,0.056,1.384,0.167c0.011,0.733,0.05,1.557,0.117,2.469
			c-0.689-0.189-1.306-0.284-1.851-0.284c-0.656,0-1.245,0.108-1.768,0.325s-0.992,0.545-1.409,0.984s-0.758,0.965-1.025,1.576
			c-0.222,0.489-0.392,1.123-0.508,1.901s-0.208,2.196-0.275,4.253c-0.044,1.501-0.066,3.092-0.066,4.771v1.117
			c-0.601-0.022-1.085-0.033-1.452-0.033C383.407,319.211,382.901,319.222,382.222,319.244z"/>
		<path fill="#660000" d="M391.446,326.967c-0.078-0.939-0.172-1.734-0.284-2.386c0.557,0.268,1.074,0.447,1.553,0.542
			s0.885,0.143,1.219,0.143c0.434,0,0.857-0.079,1.269-0.235c0.412-0.156,0.746-0.363,1.001-0.62s0.526-0.612,0.81-1.064
			c0.284-0.453,0.584-0.983,0.902-1.592s0.622-1.289,0.912-2.041l-3.559-10.125l-2.606-7.239c0.811,0.022,1.35,0.033,1.616,0.033
			c0.312,0,0.816-0.011,1.517-0.033c0.178,0.778,0.329,1.372,0.451,1.783c0.123,0.412,0.39,1.251,0.803,2.517l2.524,7.651
			c0.279,0.866,0.557,1.8,0.836,2.8l1.887-4.601l3.49-8.15c0.1-0.244,0.197-0.497,0.292-0.758c0.094-0.262,0.242-0.676,0.442-1.242
			c0.708,0.022,1.2,0.033,1.477,0.033c0.232,0,0.747-0.011,1.543-0.033c-0.434,0.989-1.483,3.295-3.15,6.917l-6.182,13.751
			c-0.434,0.922-0.829,1.622-1.185,2.1c-0.29,0.378-0.602,0.706-0.935,0.983c-0.267,0.233-0.568,0.434-0.901,0.601
			c-0.412,0.2-0.857,0.355-1.335,0.467c-0.523,0.11-1.058,0.166-1.603,0.166C393.393,327.333,392.458,327.211,391.446,326.967z"/>
		<path fill="#660000" d="M419.949,319.244l0.183-3.065l0.448-11.729h-2.082c0.056-0.549,0.1-1.238,0.134-2.068h2.15
			c0.022-1.034,0.047-1.826,0.075-2.377c0.028-0.55,0.1-1.045,0.217-1.484c0.117-0.438,0.289-0.812,0.517-1.117
			s0.545-0.586,0.951-0.842c0.406-0.256,0.878-0.442,1.418-0.56c0.539-0.116,1.159-0.175,1.86-0.175c0.923,0,1.996,0.14,3.219,0.417
			c0.022,0.667,0.078,1.373,0.167,2.118c-1.057-0.367-2.018-0.55-2.886-0.55c-0.422,0-0.812,0.056-1.167,0.166
			c-0.356,0.111-0.642,0.259-0.859,0.442s-0.395,0.425-0.534,0.726c-0.139,0.3-0.233,0.656-0.283,1.067
			c-0.05,0.411-0.075,0.896-0.075,1.451l-0.017,0.717h4.637c-0.056,0.482-0.106,1.172-0.15,2.068h-4.473l-0.296,8.513l-0.148,6.281
			c-0.69-0.022-1.197-0.033-1.52-0.033C421.124,319.211,420.628,319.222,419.949,319.244z"/>
		<path fill="#660000" d="M429.656,319.244l0.289-4.203l0.323-7.172l0.136-5.521l1.536,0.017l1.502-0.017
			c-0.125,1.734-0.238,3.55-0.34,5.445c-0.102,1.896-0.184,3.967-0.247,6.213s-0.094,3.992-0.094,5.237
			c-0.701-0.022-1.202-0.033-1.502-0.033C430.98,319.211,430.446,319.222,429.656,319.244z M430.423,298.713
			c0.033-1.045,0.05-1.835,0.05-2.368c0.611,0.022,1.151,0.033,1.618,0.033c0.589,0,1.123-0.011,1.601-0.033
			c-0.022,0.345-0.056,1.134-0.1,2.368c-0.601-0.011-1.118-0.017-1.551-0.017S431.068,298.702,430.423,298.713z"/>
		<path fill="#660000" d="M437.162,319.244c0.532-6.972,0.808-12.604,0.831-16.896l1.503,0.017c0.367,0,0.851-0.006,1.453-0.017
			l-0.221,3.336c0.278-0.467,0.5-0.826,0.667-1.076c0.167-0.25,0.389-0.514,0.667-0.792c0.278-0.278,0.606-0.536,0.984-0.775
			c0.378-0.239,0.823-0.439,1.335-0.601s1.031-0.28,1.56-0.358s1.054-0.117,1.577-0.117c0.957,0,1.88,0.117,2.77,0.351
			s1.621,0.614,2.194,1.143s0.957,1.12,1.151,1.776c0.195,0.656,0.292,1.362,0.292,2.118c0,0.145-0.006,0.423-0.017,0.834
			c-0.011,0.411-0.033,0.95-0.066,1.617l-0.331,6.988c-0.022,0.668-0.039,1.484-0.049,2.452c-0.501-0.022-0.975-0.033-1.42-0.033
			c-0.546,0-1.058,0.011-1.537,0.033c0.112-1.346,0.196-2.641,0.252-3.886l0.219-3.887c0.067-1.334,0.101-2.34,0.101-3.019
			c0-0.979-0.167-1.76-0.501-2.344c-0.334-0.583-0.868-1.034-1.603-1.351c-0.735-0.317-1.559-0.476-2.472-0.476
			c-1.292,0-2.399,0.306-3.323,0.918c-0.846,0.566-1.503,1.373-1.971,2.418c-0.323,0.745-0.551,1.846-0.685,3.303
			c-0.169,1.745-0.288,4.52-0.356,8.322c-0.62-0.022-1.102-0.033-1.445-0.033C438.379,319.211,437.859,319.222,437.162,319.244z"/>
		<path fill="#660000" d="M473.639,319.277c-0.656-0.022-1.112-0.033-1.368-0.033c-0.278,0-0.762,0-1.451,0l0.199-3.603
			c-0.356,0.623-0.662,1.104-0.917,1.442c-0.256,0.34-0.559,0.659-0.909,0.959c-0.351,0.301-0.756,0.57-1.217,0.81
			c-0.462,0.239-0.976,0.425-1.543,0.559c-0.567,0.133-1.167,0.2-1.801,0.2c-1.079,0-2.087-0.195-3.027-0.584
			c-0.94-0.389-1.738-0.945-2.394-1.668s-1.128-1.564-1.417-2.526s-0.434-1.966-0.434-3.011c0-1.401,0.272-2.779,0.817-4.137
			c0.545-1.356,1.315-2.477,2.31-3.36c0.995-0.884,2.121-1.498,3.377-1.843s2.59-0.518,4.002-0.518c0.978,0,2.14,0.111,3.485,0.334
			c0.055-1.212,0.083-2.219,0.083-3.02c0-1.156-0.006-2.09-0.017-2.802l1.519,0.017c0.378,0,0.885-0.005,1.519-0.017l-0.483,9.421
			l-0.333,10.79V319.277z M471.234,304.4c-0.667-0.2-1.237-0.328-1.709-0.384c-0.473-0.056-0.931-0.083-1.376-0.083
			c-1.067,0-2.087,0.152-3.06,0.458c-0.973,0.306-1.829,0.81-2.568,1.51s-1.309,1.59-1.709,2.668c-0.4,1.079-0.6,2.136-0.6,3.169
			c0,1.034,0.189,1.999,0.567,2.895c0.378,0.895,0.964,1.596,1.759,2.102s1.721,0.759,2.777,0.759c0.634,0,1.212-0.086,1.734-0.259
			c0.522-0.172,0.998-0.426,1.426-0.759c0.428-0.334,0.831-0.784,1.209-1.352c0.378-0.566,0.678-1.223,0.9-1.968
			c0.189-0.656,0.328-1.54,0.417-2.651c0.044-0.545,0.094-1.596,0.15-3.152L471.234,304.4z"/>
		<path fill="#660000" d="M491.951,316.592c-0.134,0.612-0.267,1.391-0.4,2.335c-1.067,0.268-1.993,0.448-2.777,0.543
			c-0.784,0.094-1.565,0.142-2.344,0.142c-1.39,0-2.638-0.167-3.744-0.501c-1.106-0.333-2.054-0.914-2.844-1.742
			s-1.356-1.776-1.701-2.844s-0.517-2.196-0.517-3.386c0-1.657,0.317-3.194,0.951-4.612c0.634-1.417,1.587-2.532,2.86-3.344
			c1.273-0.812,2.888-1.218,4.845-1.218c1.012,0,1.979,0.147,2.902,0.442c0.922,0.295,1.69,0.742,2.301,1.343
			c0.611,0.6,1.084,1.343,1.418,2.227s0.5,1.849,0.5,2.894c0,0.4-0.033,0.789-0.1,1.167h-12.726
			c-0.044,0.612-0.067,1.079-0.067,1.401c0,1.168,0.245,2.243,0.734,3.228c0.489,0.983,1.212,1.729,2.168,2.234
			c0.956,0.507,2.057,0.759,3.302,0.759C488.148,317.659,489.894,317.304,491.951,316.592z M480.709,308.653h9.94
			c-0.011-0.7-0.056-1.245-0.133-1.635c-0.078-0.389-0.223-0.792-0.434-1.209c-0.211-0.417-0.498-0.778-0.859-1.084
			s-0.795-0.539-1.301-0.701c-0.506-0.16-1.054-0.241-1.643-0.241c-0.634,0-1.237,0.089-1.81,0.267s-1.079,0.423-1.518,0.734
			c-0.439,0.311-0.812,0.675-1.118,1.092c-0.306,0.417-0.534,0.82-0.684,1.209C481.001,307.475,480.854,307.997,480.709,308.653z"/>
		<path fill="#660000" d="M496.204,319.244c0.4-6.416,0.6-11.536,0.6-15.361l-0.017-1.534c0.567,0.011,1.035,0.017,1.401,0.017
			c0.423,0,0.896-0.006,1.418-0.017l-0.133,2.769c0.412-0.689,0.776-1.209,1.093-1.56c0.317-0.35,0.675-0.639,1.075-0.867
			c0.4-0.228,0.854-0.405,1.359-0.533s1.031-0.192,1.576-0.192c0.467,0,0.928,0.056,1.384,0.167c0.011,0.733,0.05,1.557,0.117,2.469
			c-0.689-0.189-1.306-0.284-1.851-0.284c-0.656,0-1.245,0.108-1.768,0.325s-0.992,0.545-1.409,0.984s-0.758,0.965-1.025,1.576
			c-0.222,0.489-0.392,1.123-0.508,1.901s-0.208,2.196-0.275,4.253c-0.044,1.501-0.066,3.092-0.066,4.771v1.117
			c-0.601-0.022-1.085-0.033-1.452-0.033C497.389,319.211,496.883,319.222,496.204,319.244z"/>
		<path fill="#660000" d="M506.528,322.896c0.845-2.313,1.545-4.364,2.102-6.154c0.745,0.012,1.351,0.017,1.818,0.017
			c0.434,0,1.023-0.005,1.768-0.017c-0.4,0.689-0.759,1.287-1.076,1.793s-0.815,1.343-1.493,2.511l-1.101,1.851
			c-0.4-0.011-0.734-0.017-1-0.017C507.256,322.88,506.917,322.886,506.528,322.896z"/>
	</g>
	<g enable-background="new    ">
		<path fill="#660000" d="M56.521,357.699c-0.022,0.178-0.081,0.509-0.175,0.992c-0.095,0.483-0.175,0.959-0.242,1.426
			c-0.812,0.189-1.593,0.317-2.344,0.384c-0.75,0.067-1.409,0.101-1.976,0.101c-1.201,0-2.31-0.161-3.328-0.484
			c-1.017-0.322-1.904-0.853-2.66-1.593c-0.756-0.739-1.312-1.656-1.668-2.752c-0.356-1.095-0.534-2.248-0.534-3.461
			c0-1.634,0.289-3.186,0.867-4.653c0.578-1.467,1.49-2.618,2.735-3.452s2.941-1.251,5.087-1.251c1.579,0,3.119,0.212,4.62,0.634
			c0.067,0.945,0.128,1.724,0.184,2.335c-1.057-0.333-1.918-0.559-2.585-0.675c-0.667-0.117-1.284-0.176-1.851-0.176
			c-0.979,0-1.854,0.178-2.627,0.534c-0.773,0.355-1.432,0.861-1.977,1.518s-0.937,1.435-1.176,2.335s-0.358,1.818-0.358,2.752
			c0,1.257,0.194,2.357,0.583,3.303s1.07,1.676,2.043,2.193c0.973,0.517,2.065,0.775,3.277,0.775
			C53.597,358.483,54.964,358.222,56.521,357.699z"/>
		<path fill="#660000" d="M76.087,360.234c-0.545-0.022-1.013-0.033-1.402-0.033c-0.445,0-0.906,0.011-1.385,0.033l0.083-3.219
			c-0.267,0.5-0.498,0.887-0.692,1.159c-0.195,0.272-0.437,0.539-0.726,0.801c-0.289,0.261-0.586,0.48-0.893,0.658
			c-0.306,0.178-0.664,0.337-1.076,0.476c-0.411,0.139-0.892,0.256-1.442,0.351c-0.55,0.094-1.137,0.142-1.759,0.142
			c-1.357,0-2.516-0.206-3.478-0.617c-0.962-0.411-1.69-0.995-2.185-1.751c-0.495-0.757-0.742-1.791-0.742-3.103
			c0-0.2,0.011-0.539,0.033-1.018c0.022-0.478,0.055-1.101,0.099-1.868l0.281-5.554l0.049-1.785
			c0.011-0.411,0.017-0.934,0.017-1.567l1.537,0.017c0.312,0,0.791-0.006,1.437-0.017c-0.158,1.946-0.307,4.075-0.447,6.388
			c-0.141,2.313-0.211,3.792-0.211,4.437c0,0.979,0.159,1.76,0.476,2.344s0.846,1.034,1.585,1.351
			c0.74,0.317,1.577,0.476,2.512,0.476c0.823,0,1.613-0.145,2.37-0.434c0.646-0.256,1.19-0.601,1.636-1.034
			c0.478-0.478,0.878-1.095,1.201-1.852c0.233-0.556,0.412-1.272,0.534-2.151c0.078-0.634,0.156-1.773,0.233-3.419
			c0.088-2.002,0.149-4.036,0.183-6.104l1.553,0.017c0.334,0,0.801-0.006,1.402-0.017c-0.155,2.001-0.338,5.043-0.549,9.123
			C76.198,354.708,76.121,357.299,76.087,360.234z"/>
		<path fill="#660000" d="M79.788,359.917l-0.1-1.226c0-0.134-0.044-0.56-0.133-1.275c1.712,0.745,3.292,1.117,4.737,1.117
			c0.756,0,1.396-0.1,1.918-0.299c0.522-0.2,0.915-0.496,1.176-0.89s0.392-0.801,0.392-1.222c0-0.232-0.036-0.466-0.108-0.698
			s-0.181-0.457-0.325-0.673s-0.358-0.454-0.642-0.715s-0.873-0.752-1.768-1.475s-1.573-1.287-2.035-1.693
			c-0.461-0.405-0.856-0.822-1.184-1.251c-0.328-0.428-0.57-0.858-0.726-1.292c-0.156-0.434-0.233-0.873-0.233-1.318
			c0-0.711,0.225-1.4,0.675-2.067c0.45-0.668,1.101-1.165,1.951-1.493c0.851-0.328,1.849-0.492,2.994-0.492
			c1.278,0,2.685,0.15,4.22,0.45c0.044,0.867,0.1,1.663,0.167,2.386c-1.245-0.512-2.474-0.768-3.686-0.768
			c-0.656,0-1.265,0.086-1.826,0.259c-0.562,0.172-0.973,0.431-1.234,0.775s-0.392,0.723-0.392,1.134
			c0,0.268,0.044,0.523,0.133,0.768c0.089,0.244,0.248,0.509,0.476,0.792c0.228,0.283,0.503,0.564,0.825,0.843
			c0.323,0.277,0.965,0.8,1.927,1.567c0.961,0.768,1.62,1.334,1.976,1.701s0.662,0.745,0.917,1.134
			c0.256,0.39,0.442,0.776,0.559,1.159c0.117,0.384,0.175,0.776,0.175,1.177c0,0.778-0.231,1.501-0.692,2.168
			s-1.148,1.184-2.06,1.551c-0.912,0.367-1.935,0.551-3.069,0.551c-0.479,0-1.04-0.031-1.685-0.092
			c-0.645-0.062-1.192-0.134-1.643-0.217C81.014,360.209,80.455,360.084,79.788,359.917z"/>
		<path fill="#660000" d="M102.655,358.033c-0.123,0.545-0.256,1.268-0.4,2.168c-0.756,0.178-1.357,0.289-1.801,0.333
			c-0.445,0.045-0.868,0.067-1.268,0.067c-0.99,0-1.788-0.125-2.394-0.376c-0.606-0.25-1.07-0.65-1.393-1.2
			c-0.323-0.551-0.484-1.298-0.484-2.243c0-0.123,0.005-0.34,0.017-0.65c0.011-0.312,0.068-1.396,0.169-3.253l0.408-7.472h-2.229
			c0.044-0.467,0.083-1.135,0.117-2.002h2.274c0.056-0.622,0.112-1.685,0.168-3.186c1.042-0.2,1.924-0.389,2.645-0.566
			c-0.077,1.646-0.121,2.896-0.132,3.752h4.635c-0.056,0.701-0.089,1.368-0.1,2.002h-4.618l-0.445,9.39l-0.016,0.718
			c0,0.812,0.091,1.42,0.274,1.826s0.458,0.697,0.824,0.875c0.367,0.179,0.75,0.268,1.149,0.268c0.278,0,0.578-0.022,0.899-0.067
			C101.278,358.372,101.844,358.244,102.655,358.033z"/>
		<path fill="#660000" d="M113.512,342.955c1.167,0,2.279,0.167,3.336,0.501c1.056,0.333,1.971,0.861,2.744,1.584
			c0.772,0.723,1.359,1.635,1.76,2.735c0.4,1.101,0.6,2.263,0.6,3.486c0,1.323-0.214,2.591-0.642,3.803s-1.028,2.24-1.801,3.085
			c-0.773,0.846-1.718,1.465-2.835,1.859c-1.117,0.395-2.315,0.593-3.594,0.593c-1.19,0-2.313-0.179-3.369-0.534
			c-1.056-0.355-1.971-0.911-2.744-1.668c-0.773-0.756-1.359-1.682-1.759-2.776c-0.4-1.096-0.601-2.243-0.601-3.444
			c0-1.813,0.367-3.444,1.101-4.896c0.733-1.451,1.812-2.535,3.235-3.252C110.366,343.313,111.889,342.955,113.512,342.955z
			 M113.437,345.073c-1.132,0-2.173,0.284-3.123,0.851c-0.95,0.567-1.652,1.421-2.107,2.561s-0.683,2.382-0.683,3.728
			c0,1.179,0.188,2.238,0.566,3.178c0.377,0.939,0.999,1.698,1.865,2.276c0.866,0.578,1.91,0.867,3.131,0.867
			c0.833,0,1.621-0.142,2.365-0.426c0.744-0.283,1.394-0.753,1.949-1.409c0.555-0.655,0.966-1.459,1.232-2.41
			c0.266-0.95,0.4-1.948,0.4-2.993c0-0.979-0.134-1.896-0.4-2.752c-0.267-0.856-0.675-1.543-1.224-2.061
			c-0.55-0.517-1.171-0.881-1.865-1.092C114.85,345.18,114.147,345.073,113.437,345.073z"/>
		<path fill="#660000" d="M125.188,360.234l0.183-2.418c0.033-0.512,0.077-1.318,0.133-2.419l0.399-10.157
			c0.011-0.834,0.017-1.468,0.017-1.901c0.523,0.011,1.001,0.017,1.435,0.017c0.467,0,0.929-0.006,1.385-0.017l-0.149,3.103
			c0.378-0.623,0.72-1.118,1.026-1.484c0.306-0.367,0.708-0.706,1.209-1.018s1.07-0.553,1.709-0.726
			c0.639-0.172,1.304-0.259,1.993-0.259c0.478,0,0.951,0.056,1.418,0.167c0.467,0.111,0.898,0.267,1.292,0.467
			s0.734,0.429,1.017,0.684c0.284,0.256,0.511,0.534,0.684,0.834c0.172,0.301,0.347,0.734,0.525,1.302
			c0.678-1.279,1.526-2.174,2.543-2.686c1.017-0.512,2.154-0.768,3.411-0.768c0.801,0,1.576,0.128,2.327,0.384
			s1.348,0.623,1.793,1.101c0.445,0.479,0.742,0.976,0.893,1.493c0.15,0.517,0.225,1.037,0.225,1.56
			c0,0.533-0.039,1.334-0.116,2.401s-0.166,2.693-0.265,4.879c-0.099,2.185-0.155,4.006-0.166,5.462
			c-0.59-0.022-1.052-0.033-1.386-0.033c-0.356,0-0.885,0.011-1.587,0.033c0.122-1.501,0.228-3.136,0.317-4.903l0.216-4.137
			c0.056-1.001,0.083-1.862,0.083-2.585c0-0.647-0.067-1.153-0.2-1.517s-0.348-0.69-0.642-0.98
			c-0.295-0.291-0.659-0.512-1.092-0.662c-0.434-0.151-0.929-0.227-1.484-0.227c-0.445,0-0.856,0.05-1.234,0.15
			c-0.356,0.101-0.701,0.251-1.034,0.451c-0.367,0.212-0.695,0.475-0.984,0.786c-0.289,0.302-0.534,0.642-0.733,1.021
			c-0.211,0.391-0.384,0.853-0.517,1.388c-0.167,0.669-0.284,1.488-0.351,2.459c-0.077,1.033-0.137,2.396-0.181,4.086l-0.132,4.67
			c-0.646-0.022-1.13-0.033-1.453-0.033c-0.301,0-0.807,0.011-1.52,0.033c0.111-1.379,0.2-2.796,0.266-4.253l0.2-4.036
			c0.055-1.245,0.083-2.308,0.083-3.186c0-0.567-0.056-1.048-0.167-1.443c-0.111-0.395-0.32-0.756-0.625-1.084
			c-0.306-0.327-0.675-0.578-1.109-0.75c-0.434-0.173-0.912-0.259-1.434-0.259c-0.556,0-1.084,0.098-1.584,0.292
			c-0.5,0.194-0.962,0.48-1.384,0.858c-0.422,0.379-0.778,0.843-1.067,1.393c-0.289,0.551-0.514,1.273-0.675,2.169
			c-0.162,0.895-0.289,2.454-0.382,4.678c-0.094,2.225-0.141,4.098-0.141,5.621c-0.712-0.022-1.202-0.033-1.469-0.033
			C126.417,360.201,125.911,360.212,125.188,360.234z"/>
		<path fill="#660000" d="M154.608,360.234l0.289-4.203l0.323-7.172l0.136-5.521l1.536,0.017l1.502-0.017
			c-0.125,1.734-0.238,3.55-0.34,5.445c-0.102,1.896-0.184,3.967-0.247,6.213s-0.094,3.992-0.094,5.237
			c-0.701-0.022-1.202-0.033-1.502-0.033C155.933,360.201,155.398,360.212,154.608,360.234z M155.375,339.703
			c0.033-1.045,0.05-1.835,0.05-2.368c0.611,0.022,1.151,0.033,1.618,0.033c0.589,0,1.123-0.011,1.601-0.033
			c-0.022,0.345-0.056,1.134-0.1,2.368c-0.601-0.011-1.118-0.017-1.551-0.017S156.02,339.692,155.375,339.703z"/>
		<path fill="#660000" d="M161.046,360.234c0.044-0.7,0.072-1.534,0.083-2.502l0.868-1.018c0.178-0.2,0.345-0.4,0.501-0.601
			l8.68-10.757c-1.024-0.012-2.104-0.018-3.239-0.018c-1.792,0-3.706,0.062-5.742,0.184c0.055-0.744,0.083-1.473,0.083-2.185
			c1.835,0.011,3.914,0.017,6.238,0.017c2.101,0,4.036-0.006,5.804-0.017c-0.033,0.423-0.056,0.873-0.066,1.351l-0.05,1.251
			c-0.422,0.489-0.828,0.979-1.217,1.468l-8.756,10.758c1.078,0.045,2.129,0.067,3.152,0.067c2.679,0,4.775-0.056,6.288-0.167
			c-0.078,0.601-0.128,1.323-0.15,2.168c-1.824-0.022-3.819-0.033-5.988-0.033C164.854,360.201,162.692,360.212,161.046,360.234z"/>
		<path fill="#660000" d="M191.202,357.582c-0.134,0.612-0.267,1.391-0.4,2.335c-1.067,0.268-1.993,0.448-2.777,0.543
			c-0.784,0.094-1.565,0.142-2.344,0.142c-1.39,0-2.638-0.167-3.744-0.501c-1.106-0.333-2.054-0.914-2.844-1.742
			s-1.356-1.776-1.701-2.844s-0.517-2.196-0.517-3.386c0-1.657,0.317-3.194,0.951-4.612c0.634-1.417,1.587-2.532,2.86-3.344
			c1.273-0.812,2.888-1.218,4.845-1.218c1.012,0,1.979,0.147,2.902,0.442c0.922,0.295,1.69,0.742,2.301,1.343
			c0.611,0.6,1.084,1.343,1.418,2.227s0.5,1.849,0.5,2.894c0,0.4-0.033,0.789-0.1,1.167h-12.726
			c-0.044,0.612-0.067,1.079-0.067,1.401c0,1.168,0.245,2.243,0.734,3.228c0.489,0.983,1.212,1.729,2.168,2.234
			c0.956,0.507,2.057,0.759,3.302,0.759C187.399,358.649,189.145,358.294,191.202,357.582z M179.96,349.644h9.94
			c-0.011-0.7-0.056-1.245-0.133-1.635c-0.078-0.389-0.223-0.792-0.434-1.209c-0.211-0.417-0.498-0.778-0.859-1.084
			s-0.795-0.539-1.301-0.701c-0.506-0.16-1.054-0.241-1.643-0.241c-0.634,0-1.237,0.089-1.81,0.267s-1.079,0.423-1.518,0.734
			c-0.439,0.311-0.812,0.675-1.118,1.092c-0.306,0.417-0.534,0.82-0.684,1.209C180.252,348.465,180.104,348.987,179.96,349.644z"/>
		<path fill="#660000" d="M211.283,360.268c-0.656-0.022-1.112-0.033-1.368-0.033c-0.278,0-0.762,0-1.451,0l0.199-3.603
			c-0.356,0.623-0.662,1.104-0.917,1.442c-0.256,0.34-0.559,0.659-0.909,0.959c-0.351,0.301-0.756,0.57-1.217,0.81
			c-0.462,0.239-0.976,0.425-1.543,0.559c-0.567,0.133-1.167,0.2-1.801,0.2c-1.079,0-2.087-0.195-3.027-0.584
			c-0.94-0.389-1.738-0.945-2.394-1.668s-1.128-1.564-1.417-2.526s-0.434-1.966-0.434-3.011c0-1.401,0.272-2.779,0.817-4.137
			c0.545-1.356,1.315-2.477,2.31-3.36c0.995-0.884,2.121-1.498,3.377-1.843s2.59-0.518,4.002-0.518c0.978,0,2.14,0.111,3.485,0.334
			c0.055-1.212,0.083-2.219,0.083-3.02c0-1.156-0.006-2.09-0.017-2.802l1.519,0.017c0.378,0,0.885-0.005,1.519-0.017l-0.483,9.421
			l-0.333,10.79V360.268z M208.879,345.391c-0.667-0.2-1.237-0.328-1.709-0.384c-0.473-0.056-0.931-0.083-1.376-0.083
			c-1.067,0-2.087,0.152-3.06,0.458c-0.973,0.306-1.829,0.81-2.568,1.51s-1.309,1.59-1.709,2.668c-0.4,1.079-0.6,2.136-0.6,3.169
			c0,1.034,0.189,1.999,0.567,2.895c0.378,0.895,0.964,1.596,1.759,2.102s1.721,0.759,2.777,0.759c0.634,0,1.212-0.086,1.734-0.259
			c0.522-0.172,0.998-0.426,1.426-0.759c0.428-0.334,0.831-0.784,1.209-1.352c0.378-0.566,0.678-1.223,0.9-1.968
			c0.189-0.656,0.328-1.54,0.417-2.651c0.044-0.545,0.094-1.596,0.15-3.152L208.879,345.391z"/>
		<path fill="#660000" d="M224.759,360.234l0.183-3.065l0.448-11.729h-2.082c0.056-0.549,0.1-1.238,0.134-2.068h2.15
			c0.022-1.034,0.047-1.826,0.075-2.377c0.028-0.55,0.1-1.045,0.217-1.484c0.117-0.438,0.289-0.812,0.517-1.117
			s0.545-0.586,0.951-0.842c0.406-0.256,0.878-0.442,1.418-0.56c0.539-0.116,1.159-0.175,1.86-0.175c0.923,0,1.996,0.14,3.219,0.417
			c0.022,0.667,0.078,1.373,0.167,2.118c-1.057-0.367-2.018-0.55-2.886-0.55c-0.422,0-0.812,0.056-1.167,0.166
			c-0.356,0.111-0.642,0.259-0.859,0.442s-0.395,0.425-0.534,0.726c-0.139,0.3-0.233,0.656-0.283,1.067
			c-0.05,0.411-0.075,0.896-0.075,1.451l-0.017,0.717h4.637c-0.056,0.482-0.106,1.172-0.15,2.068h-4.473l-0.296,8.513l-0.148,6.281
			c-0.69-0.022-1.197-0.033-1.52-0.033C225.934,360.201,225.438,360.212,224.759,360.234z"/>
		<path fill="#660000" d="M242.788,342.955c1.167,0,2.279,0.167,3.336,0.501c1.056,0.333,1.971,0.861,2.744,1.584
			c0.772,0.723,1.359,1.635,1.76,2.735c0.4,1.101,0.6,2.263,0.6,3.486c0,1.323-0.214,2.591-0.642,3.803s-1.028,2.24-1.801,3.085
			c-0.773,0.846-1.718,1.465-2.835,1.859c-1.117,0.395-2.315,0.593-3.594,0.593c-1.19,0-2.313-0.179-3.369-0.534
			c-1.056-0.355-1.971-0.911-2.744-1.668c-0.773-0.756-1.359-1.682-1.759-2.776c-0.4-1.096-0.601-2.243-0.601-3.444
			c0-1.813,0.367-3.444,1.101-4.896c0.733-1.451,1.812-2.535,3.235-3.252C239.642,343.313,241.165,342.955,242.788,342.955z
			 M242.713,345.073c-1.132,0-2.173,0.284-3.123,0.851c-0.95,0.567-1.652,1.421-2.107,2.561s-0.683,2.382-0.683,3.728
			c0,1.179,0.188,2.238,0.566,3.178c0.377,0.939,0.999,1.698,1.865,2.276c0.866,0.578,1.91,0.867,3.131,0.867
			c0.833,0,1.621-0.142,2.365-0.426c0.744-0.283,1.394-0.753,1.949-1.409c0.555-0.655,0.966-1.459,1.232-2.41
			c0.266-0.95,0.4-1.948,0.4-2.993c0-0.979-0.134-1.896-0.4-2.752c-0.267-0.856-0.675-1.543-1.224-2.061
			c-0.55-0.517-1.171-0.881-1.865-1.092C244.125,345.18,243.423,345.073,242.713,345.073z"/>
		<path fill="#660000" d="M254.447,360.234c0.4-6.416,0.6-11.536,0.6-15.361l-0.017-1.534c0.567,0.011,1.035,0.017,1.401,0.017
			c0.423,0,0.896-0.006,1.418-0.017l-0.133,2.769c0.412-0.689,0.776-1.209,1.093-1.56c0.317-0.35,0.675-0.639,1.075-0.867
			c0.4-0.228,0.854-0.405,1.359-0.533s1.031-0.192,1.576-0.192c0.467,0,0.928,0.056,1.384,0.167c0.011,0.733,0.05,1.557,0.117,2.469
			c-0.689-0.189-1.306-0.284-1.851-0.284c-0.656,0-1.245,0.108-1.768,0.325s-0.992,0.545-1.409,0.984s-0.758,0.965-1.025,1.576
			c-0.222,0.489-0.392,1.123-0.508,1.901s-0.208,2.196-0.275,4.253c-0.044,1.501-0.066,3.092-0.066,4.771v1.117
			c-0.601-0.022-1.085-0.033-1.452-0.033C255.632,360.201,255.125,360.212,254.447,360.234z"/>
		<path fill="#660000" d="M272.21,367.957c-0.078-0.939-0.172-1.734-0.284-2.386c0.557,0.268,1.074,0.447,1.553,0.542
			s0.885,0.143,1.219,0.143c0.434,0,0.857-0.079,1.269-0.235c0.412-0.156,0.746-0.363,1.001-0.62s0.526-0.612,0.81-1.064
			c0.284-0.453,0.584-0.983,0.902-1.592s0.622-1.289,0.912-2.041l-3.559-10.125l-2.606-7.239c0.811,0.022,1.35,0.033,1.616,0.033
			c0.312,0,0.816-0.011,1.517-0.033c0.178,0.778,0.329,1.372,0.451,1.783c0.123,0.412,0.39,1.251,0.803,2.517l2.524,7.651
			c0.279,0.866,0.557,1.8,0.836,2.8l1.887-4.601l3.49-8.15c0.1-0.244,0.197-0.497,0.292-0.758c0.094-0.262,0.242-0.676,0.442-1.242
			c0.708,0.022,1.2,0.033,1.477,0.033c0.232,0,0.747-0.011,1.543-0.033c-0.434,0.989-1.483,3.295-3.15,6.917l-6.182,13.751
			c-0.434,0.922-0.829,1.622-1.185,2.1c-0.29,0.378-0.602,0.706-0.935,0.983c-0.267,0.233-0.568,0.434-0.901,0.601
			c-0.412,0.2-0.857,0.355-1.335,0.467c-0.523,0.11-1.058,0.166-1.603,0.166C274.157,368.323,273.223,368.201,272.21,367.957z"/>
		<path fill="#660000" d="M300.129,342.955c1.167,0,2.279,0.167,3.336,0.501c1.056,0.333,1.971,0.861,2.744,1.584
			c0.772,0.723,1.359,1.635,1.76,2.735c0.4,1.101,0.6,2.263,0.6,3.486c0,1.323-0.214,2.591-0.642,3.803s-1.028,2.24-1.801,3.085
			c-0.773,0.846-1.718,1.465-2.835,1.859c-1.117,0.395-2.315,0.593-3.594,0.593c-1.19,0-2.313-0.179-3.369-0.534
			c-1.056-0.355-1.971-0.911-2.744-1.668c-0.773-0.756-1.359-1.682-1.759-2.776c-0.4-1.096-0.601-2.243-0.601-3.444
			c0-1.813,0.367-3.444,1.101-4.896c0.733-1.451,1.812-2.535,3.235-3.252C296.983,343.313,298.506,342.955,300.129,342.955z
			 M300.054,345.073c-1.132,0-2.173,0.284-3.123,0.851c-0.95,0.567-1.652,1.421-2.107,2.561s-0.683,2.382-0.683,3.728
			c0,1.179,0.188,2.238,0.566,3.178c0.377,0.939,0.999,1.698,1.865,2.276c0.866,0.578,1.91,0.867,3.131,0.867
			c0.833,0,1.621-0.142,2.365-0.426c0.744-0.283,1.394-0.753,1.949-1.409c0.555-0.655,0.966-1.459,1.232-2.41
			c0.266-0.95,0.4-1.948,0.4-2.993c0-0.979-0.134-1.896-0.4-2.752c-0.267-0.856-0.675-1.543-1.224-2.061
			c-0.55-0.517-1.171-0.881-1.865-1.092C301.467,345.18,300.765,345.073,300.054,345.073z"/>
		<path fill="#660000" d="M327.702,360.234c-0.545-0.022-1.013-0.033-1.402-0.033c-0.445,0-0.906,0.011-1.385,0.033l0.083-3.219
			c-0.267,0.5-0.498,0.887-0.692,1.159c-0.195,0.272-0.437,0.539-0.726,0.801c-0.289,0.261-0.586,0.48-0.893,0.658
			c-0.306,0.178-0.664,0.337-1.076,0.476c-0.411,0.139-0.892,0.256-1.442,0.351c-0.55,0.094-1.137,0.142-1.759,0.142
			c-1.357,0-2.516-0.206-3.478-0.617c-0.962-0.411-1.69-0.995-2.185-1.751c-0.495-0.757-0.742-1.791-0.742-3.103
			c0-0.2,0.011-0.539,0.033-1.018c0.022-0.478,0.055-1.101,0.099-1.868l0.281-5.554l0.049-1.785
			c0.011-0.411,0.017-0.934,0.017-1.567l1.537,0.017c0.312,0,0.791-0.006,1.437-0.017c-0.158,1.946-0.307,4.075-0.447,6.388
			c-0.141,2.313-0.211,3.792-0.211,4.437c0,0.979,0.159,1.76,0.476,2.344s0.846,1.034,1.585,1.351
			c0.74,0.317,1.577,0.476,2.512,0.476c0.823,0,1.613-0.145,2.37-0.434c0.646-0.256,1.19-0.601,1.636-1.034
			c0.478-0.478,0.878-1.095,1.201-1.852c0.233-0.556,0.412-1.272,0.534-2.151c0.078-0.634,0.156-1.773,0.233-3.419
			c0.088-2.002,0.149-4.036,0.183-6.104l1.553,0.017c0.334,0,0.801-0.006,1.402-0.017c-0.155,2.001-0.338,5.043-0.549,9.123
			C327.813,354.708,327.735,357.299,327.702,360.234z"/>
		<path fill="#660000" d="M332.136,360.234c0.4-6.416,0.6-11.536,0.6-15.361l-0.017-1.534c0.567,0.011,1.035,0.017,1.401,0.017
			c0.423,0,0.896-0.006,1.418-0.017l-0.133,2.769c0.412-0.689,0.776-1.209,1.093-1.56c0.317-0.35,0.675-0.639,1.075-0.867
			c0.4-0.228,0.854-0.405,1.359-0.533s1.031-0.192,1.576-0.192c0.467,0,0.928,0.056,1.384,0.167c0.011,0.733,0.05,1.557,0.117,2.469
			c-0.689-0.189-1.306-0.284-1.851-0.284c-0.656,0-1.245,0.108-1.768,0.325s-0.992,0.545-1.409,0.984s-0.758,0.965-1.025,1.576
			c-0.222,0.489-0.392,1.123-0.508,1.901s-0.208,2.196-0.275,4.253c-0.044,1.501-0.066,3.092-0.066,4.771v1.117
			c-0.601-0.022-1.085-0.033-1.452-0.033C333.321,360.201,332.814,360.212,332.136,360.234z"/>
		<path fill="#660000" d="M352.567,360.234c0.532-6.972,0.808-12.604,0.831-16.896l1.503,0.017c0.367,0,0.851-0.006,1.453-0.017
			l-0.221,3.336c0.278-0.467,0.5-0.826,0.667-1.076c0.167-0.25,0.389-0.514,0.667-0.792c0.278-0.278,0.606-0.536,0.984-0.775
			c0.378-0.239,0.823-0.439,1.335-0.601s1.031-0.28,1.56-0.358s1.054-0.117,1.577-0.117c0.957,0,1.88,0.117,2.77,0.351
			s1.621,0.614,2.194,1.143s0.957,1.12,1.151,1.776c0.195,0.656,0.292,1.362,0.292,2.118c0,0.145-0.006,0.423-0.017,0.834
			c-0.011,0.411-0.033,0.95-0.066,1.617l-0.331,6.988c-0.022,0.668-0.039,1.484-0.049,2.452c-0.501-0.022-0.975-0.033-1.42-0.033
			c-0.546,0-1.058,0.011-1.537,0.033c0.112-1.346,0.196-2.641,0.252-3.886l0.219-3.887c0.067-1.334,0.101-2.34,0.101-3.019
			c0-0.979-0.167-1.76-0.501-2.344c-0.334-0.583-0.868-1.034-1.603-1.351c-0.735-0.317-1.559-0.476-2.472-0.476
			c-1.292,0-2.399,0.306-3.323,0.918c-0.846,0.566-1.503,1.373-1.971,2.418c-0.323,0.745-0.551,1.846-0.685,3.303
			c-0.169,1.745-0.288,4.52-0.356,8.322c-0.62-0.022-1.102-0.033-1.445-0.033C353.785,360.201,353.265,360.212,352.567,360.234z"/>
		<path fill="#660000" d="M387.092,357.582c-0.134,0.612-0.267,1.391-0.4,2.335c-1.067,0.268-1.993,0.448-2.777,0.543
			c-0.784,0.094-1.565,0.142-2.344,0.142c-1.39,0-2.638-0.167-3.744-0.501c-1.106-0.333-2.054-0.914-2.844-1.742
			s-1.356-1.776-1.701-2.844s-0.517-2.196-0.517-3.386c0-1.657,0.317-3.194,0.951-4.612c0.634-1.417,1.587-2.532,2.86-3.344
			c1.273-0.812,2.888-1.218,4.845-1.218c1.012,0,1.979,0.147,2.902,0.442c0.922,0.295,1.69,0.742,2.301,1.343
			c0.611,0.6,1.084,1.343,1.418,2.227s0.5,1.849,0.5,2.894c0,0.4-0.033,0.789-0.1,1.167h-12.726
			c-0.044,0.612-0.067,1.079-0.067,1.401c0,1.168,0.245,2.243,0.734,3.228c0.489,0.983,1.212,1.729,2.168,2.234
			c0.956,0.507,2.057,0.759,3.302,0.759C383.29,358.649,385.035,358.294,387.092,357.582z M375.851,349.644h9.94
			c-0.011-0.7-0.056-1.245-0.133-1.635c-0.078-0.389-0.223-0.792-0.434-1.209c-0.211-0.417-0.498-0.778-0.859-1.084
			s-0.795-0.539-1.301-0.701c-0.506-0.16-1.054-0.241-1.643-0.241c-0.634,0-1.237,0.089-1.81,0.267s-1.079,0.423-1.518,0.734
			c-0.439,0.311-0.812,0.675-1.118,1.092c-0.306,0.417-0.534,0.82-0.684,1.209C376.143,348.465,375.995,348.987,375.851,349.644z"/>
		<path fill="#660000" d="M405.222,357.582c-0.134,0.612-0.267,1.391-0.4,2.335c-1.067,0.268-1.993,0.448-2.777,0.543
			c-0.784,0.094-1.565,0.142-2.344,0.142c-1.39,0-2.638-0.167-3.744-0.501c-1.106-0.333-2.054-0.914-2.844-1.742
			s-1.356-1.776-1.701-2.844s-0.517-2.196-0.517-3.386c0-1.657,0.317-3.194,0.951-4.612c0.634-1.417,1.587-2.532,2.86-3.344
			c1.273-0.812,2.888-1.218,4.845-1.218c1.012,0,1.979,0.147,2.902,0.442c0.922,0.295,1.69,0.742,2.301,1.343
			c0.611,0.6,1.084,1.343,1.418,2.227s0.5,1.849,0.5,2.894c0,0.4-0.033,0.789-0.1,1.167h-12.726
			c-0.044,0.612-0.067,1.079-0.067,1.401c0,1.168,0.245,2.243,0.734,3.228c0.489,0.983,1.212,1.729,2.168,2.234
			c0.956,0.507,2.057,0.759,3.302,0.759C401.419,358.649,403.165,358.294,405.222,357.582z M393.98,349.644h9.94
			c-0.011-0.7-0.056-1.245-0.133-1.635c-0.078-0.389-0.223-0.792-0.434-1.209c-0.211-0.417-0.498-0.778-0.859-1.084
			s-0.795-0.539-1.301-0.701c-0.506-0.16-1.054-0.241-1.643-0.241c-0.634,0-1.237,0.089-1.81,0.267s-1.079,0.423-1.518,0.734
			c-0.439,0.311-0.812,0.675-1.118,1.092c-0.306,0.417-0.534,0.82-0.684,1.209C394.272,348.465,394.125,348.987,393.98,349.644z"/>
		<path fill="#660000" d="M425.304,360.268c-0.656-0.022-1.112-0.033-1.368-0.033c-0.278,0-0.762,0-1.451,0l0.199-3.603
			c-0.356,0.623-0.662,1.104-0.917,1.442c-0.256,0.34-0.559,0.659-0.909,0.959c-0.351,0.301-0.756,0.57-1.217,0.81
			c-0.462,0.239-0.976,0.425-1.543,0.559c-0.567,0.133-1.167,0.2-1.801,0.2c-1.079,0-2.087-0.195-3.027-0.584
			c-0.94-0.389-1.738-0.945-2.394-1.668s-1.128-1.564-1.417-2.526s-0.434-1.966-0.434-3.011c0-1.401,0.272-2.779,0.817-4.137
			c0.545-1.356,1.315-2.477,2.31-3.36c0.995-0.884,2.121-1.498,3.377-1.843s2.59-0.518,4.002-0.518c0.978,0,2.14,0.111,3.485,0.334
			c0.055-1.212,0.083-2.219,0.083-3.02c0-1.156-0.006-2.09-0.017-2.802l1.519,0.017c0.378,0,0.885-0.005,1.519-0.017l-0.483,9.421
			l-0.333,10.79V360.268z M422.9,345.391c-0.667-0.2-1.237-0.328-1.709-0.384c-0.473-0.056-0.931-0.083-1.376-0.083
			c-1.067,0-2.087,0.152-3.06,0.458c-0.973,0.306-1.829,0.81-2.568,1.51s-1.309,1.59-1.709,2.668c-0.4,1.079-0.6,2.136-0.6,3.169
			c0,1.034,0.189,1.999,0.567,2.895c0.378,0.895,0.964,1.596,1.759,2.102s1.721,0.759,2.777,0.759c0.634,0,1.212-0.086,1.734-0.259
			c0.522-0.172,0.998-0.426,1.426-0.759c0.428-0.334,0.831-0.784,1.209-1.352c0.378-0.566,0.678-1.223,0.9-1.968
			c0.189-0.656,0.328-1.54,0.417-2.651c0.044-0.545,0.094-1.596,0.15-3.152L422.9,345.391z"/>
		<path fill="#660000" d="M429.005,359.917l-0.1-1.226c0-0.134-0.044-0.56-0.133-1.275c1.712,0.745,3.292,1.117,4.737,1.117
			c0.756,0,1.396-0.1,1.918-0.299c0.522-0.2,0.915-0.496,1.176-0.89s0.392-0.801,0.392-1.222c0-0.232-0.036-0.466-0.108-0.698
			s-0.181-0.457-0.325-0.673s-0.358-0.454-0.642-0.715s-0.873-0.752-1.768-1.475s-1.573-1.287-2.035-1.693
			c-0.461-0.405-0.856-0.822-1.184-1.251c-0.328-0.428-0.57-0.858-0.726-1.292c-0.156-0.434-0.233-0.873-0.233-1.318
			c0-0.711,0.225-1.4,0.675-2.067c0.45-0.668,1.101-1.165,1.951-1.493c0.851-0.328,1.849-0.492,2.994-0.492
			c1.278,0,2.685,0.15,4.22,0.45c0.044,0.867,0.1,1.663,0.167,2.386c-1.245-0.512-2.474-0.768-3.686-0.768
			c-0.656,0-1.265,0.086-1.826,0.259c-0.562,0.172-0.973,0.431-1.234,0.775s-0.392,0.723-0.392,1.134
			c0,0.268,0.044,0.523,0.133,0.768c0.089,0.244,0.248,0.509,0.476,0.792c0.228,0.283,0.503,0.564,0.825,0.843
			c0.323,0.277,0.965,0.8,1.927,1.567c0.961,0.768,1.62,1.334,1.976,1.701s0.662,0.745,0.917,1.134
			c0.256,0.39,0.442,0.776,0.559,1.159c0.117,0.384,0.175,0.776,0.175,1.177c0,0.778-0.231,1.501-0.692,2.168
			s-1.148,1.184-2.06,1.551c-0.912,0.367-1.935,0.551-3.069,0.551c-0.479,0-1.04-0.031-1.685-0.092
			c-0.645-0.062-1.192-0.134-1.643-0.217C430.231,360.209,429.673,360.084,429.005,359.917z"/>
		<path fill="#660000" d="M444.033,360.234l0.067-0.968c0.022-0.255,0.039-0.589,0.05-1l0.05-1.051
			c0.79,0.022,1.373,0.033,1.751,0.033c0.312,0,0.868-0.011,1.668-0.033c-0.033,0.434-0.089,1.439-0.167,3.019
			c-0.734-0.022-1.29-0.033-1.668-0.033C445.307,360.201,444.723,360.212,444.033,360.234z M444.584,355.264l0.359-11.941
			l0.102-4.253l0.018-1.602c0.72,0.012,1.251,0.017,1.595,0.017l1.529-0.017c-0.123,1.468-0.223,3.014-0.3,4.637l-0.683,13.159
			c-0.489-0.021-0.89-0.033-1.201-0.033C445.568,355.23,445.095,355.242,444.584,355.264z"/>
	</g>
	<g enable-background="new    ">
		<path fill="#4A0300" d="M87.06,160.607c-7.008,0-15.978,3.504-15.978,11.632c0,10.091,13.875,14.015,21.583,16.678
			c29.432,9.811,35.458,23.966,35.458,37.28c0,16.258-11.632,36.3-41.205,36.3c-19.901,0-40.083-10.651-40.083-32.936
			c0-11.913,7.148-18.92,8.549-18.92c2.382,0,0,28.451,30.133,28.451c10.651,0,19.901-4.625,19.901-13.314
			c0-10.231-12.614-14.436-20.743-16.958c-30.693-9.53-34.057-23.405-34.057-35.318c0-11.773,7.989-31.814,36.439-31.814
			c20.322,0,34.758,10.792,34.758,14.856c0,3.924-7.288,16.678-11.212,16.678C107.101,173.221,101.635,160.607,87.06,160.607z"/>
		<path fill="#4A0300" d="M182.498,260.395c-1.822,0-4.905,0.421-4.905-2.242c0-1.401,7.148-20.042,7.148-48.492
			c0-9.951-0.841-22.424-10.372-22.424c-5.326,0-16.257,3.503-16.257,31.254c0,16.818,4.064,38.401,4.064,40.083
			c0,1.963-2.383,1.822-3.784,1.822h-11.913c-5.186,0-7.288,2.383-7.288-34.617c0-63.489,4.906-59.564,15.697-59.564
			c4.905,0,9.951-0.701,9.951,2.523c0,1.401-1.261,3.083-1.261,5.045c0,1.401,0.701,2.663,2.102,2.663
			c2.383,0,8.83-5.746,17.799-5.746c3.924,0,20.182,0.561,20.182,37.42c0,55.079-4.345,52.276-9.11,52.276H182.498z"/>
		<path fill="#4A0300" d="M247.803,202.092c4.064-0.701,7.288-1.401,7.288-6.026c0-7.148-7.428-10.932-13.595-10.932
			c-14.295,0-12.193,12.053-15.276,12.053c-4.485,0-9.39-5.466-9.39-11.493c0-10.371,11.632-17.098,24.526-17.098
			c4.485,0,23.686-0.14,30.833,19.481c2.943,8.129,3.224,49.613,3.224,54.519c0,6.166,1.121,9.811,1.121,14.575
			c0,2.943-13.174,3.224-25.648,3.224c-33.776,0-36.159-17.379-36.159-25.788C214.728,216.948,232.106,204.755,247.803,202.092z
			 M256.493,226.618c0-4.905,0.841-10.792-5.886-10.792c-8.269,0-16.958,7.008-16.958,15.556c0,7.849,6.868,12.474,14.295,12.474
			c8.269,0,8.549-4.204,8.549-11.072V226.618z"/>
		<path fill="#4A0300" d="M285.92,220.031c0-24.106,12.193-51.436,39.803-51.436c12.193,0,21.022,6.587,21.022,14.576
			c0,4.205-3.083,12.333-8.269,12.333c-3.223,0-2.663-10.372-14.015-10.372c-14.436,0-19.621,19.061-19.621,30.833
			c0,13.595,6.447,24.946,19.761,24.946c15.137,0,18.64-13.874,19.902-13.874c0.701,0,2.102,2.522,2.102,8.269
			c0,16.818-11.072,27.189-27.61,27.189C295.73,262.497,285.92,240.493,285.92,220.031z"/>
		<path fill="#4A0300" d="M362.298,260.395c-4.905,0-4.345-46.95-4.345-50.174c0-6.587-0.561-69.375,5.747-69.375h14.996
			c1.822,0,3.364,0.841,3.364,3.083c0,2.803-5.045,15.697-5.186,52.137c0,4.905,0,11.212,1.822,11.212
			c4.765,0,17.519-18.5,17.519-33.636c0-3.504,1.401-2.943,4.345-2.943h8.549c2.803,0,6.026-0.841,6.026,3.083
			c0,19.341-15.276,31.955-15.276,34.757c0,2.943,5.746,5.186,11.492,12.333c5.747,7.147,11.493,19.061,11.493,35.738
			c0,4.205-2.663,3.784-6.167,3.784h-11.353c-3.784,0-5.045,0.141-5.186-4.345c-0.14-19.341-9.25-34.897-13.455-34.897
			c-1.822,0-8.269,2.103-8.269,8.829c0,17.099,3.504,26.209,3.504,28.731c0,1.541-1.402,1.682-3.504,1.682H362.298z"/>
		<path fill="#4A0300" d="M517.86,143.789c26.068,0,32.655,14.295,32.655,26.208c0,22.424-21.022,29.292-21.022,33.216
			s25.227,22.284,25.227,55.359c0,1.542-0.561,1.822-3.504,1.822h-15.837c-2.523,0-6.868,0.421-6.868-1.822
			c0-15.837-11.212-44.287-19.341-44.287c-4.205,0-14.436,5.746-14.436,13.595c0,10.651,5.186,29.852,5.186,30.833
			c0,2.383-3.504,1.682-4.905,1.682h-16.258c-3.503,0-7.708,2.663-7.708-49.894c0-69.235,7.288-66.712,9.67-66.712H517.86z
			 M527.811,172.379c0-8.83-8.269-12.053-15.837-12.053c-12.754,0-18.36,4.625-18.22,28.871c0,2.943,0.14,8.549,4.345,8.549
			C502.864,197.747,527.811,185.273,527.811,172.379z"/>
		<path fill="#4A0300" d="M570.971,260.395c-6.867,0-7.428,2.943-7.428-46.39c0-47.932,2.243-43.307,6.868-43.307h7.708
			c5.886,0,6.026,0.42,6.026,2.102c0,5.186-1.682,10.372-1.682,25.648c0,35.318,5.466,57.042,5.466,58.303
			c0,4.484-4.205,3.644-7.428,3.644H570.971z M565.084,150.516c0-6.027,5.186-9.671,10.792-9.671s10.792,3.644,10.792,9.671
			c0,6.026-5.186,9.25-10.792,9.25S565.084,156.542,565.084,150.516z"/>
		<path fill="#4A0300" d="M597.317,220.031c0-24.106,12.193-51.436,39.803-51.436c12.193,0,21.022,6.587,21.022,14.576
			c0,4.205-3.083,12.333-8.269,12.333c-3.224,0-2.663-10.372-14.016-10.372c-14.436,0-19.621,19.061-19.621,30.833
			c0,13.595,6.447,24.946,19.762,24.946c15.136,0,18.64-13.874,19.901-13.874c0.7,0,2.103,2.522,2.103,8.269
			c0,16.818-11.072,27.189-27.61,27.189C607.127,262.497,597.317,240.493,597.317,220.031z"/>
		<path fill="#4A0300" d="M665.706,219.331c0-33.917,18.78-50.735,37.561-50.735c15.417,0,28.451,8.689,28.451,25.227
			c0,30.133-45.129,23.826-45.129,38.401c0,6.588,10.651,11.353,17.659,11.353c22.984,0,22.984-17.519,24.946-17.519
			c2.103,0,2.523,7.287,2.523,8.409c0,17.799-13.735,28.03-30.554,28.03C676.077,262.497,665.706,241.754,665.706,219.331z
			 M684.626,205.456c0,1.542,0.701,3.083,2.523,3.083c1.682,0,27.189-5.606,27.189-12.753c0-6.868-6.447-10.652-11.773-10.652
			C691.214,185.133,684.626,197.327,684.626,205.456z"/>
	</g>
	<g enable-background="new    ">
		<path fill="#660000" d="M54.399,124.47l-3.775-12.081l-6.852-20.703c0.883,0.016,1.662,0.024,2.335,0.024
			c0.722,0,1.5-0.008,2.335-0.024L52.694,106l3.291,10.616l1.249,3.819c2.445-5.06,4.771-10.215,6.977-15.467
			c-1.409-4.547-2.882-8.974-4.419-13.282c0.881,0.016,1.667,0.024,2.356,0.024c0.721,0,1.498-0.008,2.332-0.024
			c0.432,1.649,0.795,2.986,1.091,4.011c0.296,1.024,0.715,2.354,1.259,3.987c0.93-1.985,2.028-4.651,3.294-7.998
			c0.88,0.016,1.672,0.024,2.376,0.024c0.752,0,1.543-0.008,2.376-0.024c-2.146,4.355-4.219,8.799-6.221,13.33
			c1.477,5.124,3.106,10.264,4.888,15.419l6.385-14.267l4.632-10.711l1.561-3.771c0.896,0.016,1.68,0.024,2.352,0.024
			c0.704,0,1.479-0.008,2.327-0.024l-7.652,16.356l-5.469,12.009l-1.943,4.419c-0.882-0.032-1.717-0.048-2.502-0.048
			c-0.851,0-1.685,0.016-2.503,0.048c-1.412-4.819-2.953-9.551-4.621-14.194c-2.35,4.708-4.564,9.439-6.642,14.194
			c-0.865-0.032-1.713-0.048-2.545-0.048C56.056,124.422,55.215,124.438,54.399,124.47z"/>
		<path fill="#660000" d="M112.462,120.651c-0.192,0.881-0.384,2.002-0.577,3.362c-1.537,0.384-2.87,0.645-3.999,0.781
			c-1.128,0.136-2.254,0.204-3.375,0.204c-2.001,0-3.799-0.24-5.392-0.72c-1.593-0.48-2.958-1.317-4.095-2.51
			c-1.137-1.192-1.954-2.558-2.45-4.095s-0.744-3.162-0.744-4.875c0-2.386,0.456-4.599,1.369-6.641s2.286-3.646,4.119-4.815
			c1.833-1.169,4.159-1.753,6.977-1.753c1.457,0,2.85,0.212,4.179,0.636c1.329,0.425,2.434,1.069,3.314,1.934
			c0.88,0.865,1.561,1.934,2.042,3.206c0.48,1.273,0.721,2.663,0.721,4.167c0,0.577-0.048,1.137-0.144,1.682H96.082
			c-0.064,0.88-0.096,1.553-0.096,2.017c0,1.681,0.352,3.23,1.057,4.647s1.745,2.49,3.123,3.218
			c1.376,0.729,2.962,1.093,4.755,1.093C106.986,122.188,109.5,121.676,112.462,120.651z M96.274,109.219h14.314
			c-0.016-1.009-0.081-1.793-0.192-2.354s-0.32-1.141-0.624-1.741c-0.305-0.601-0.717-1.121-1.237-1.562
			c-0.521-0.44-1.145-0.776-1.873-1.008c-0.729-0.232-1.517-0.349-2.366-0.349c-0.913,0-1.782,0.128-2.606,0.384
			c-0.825,0.256-1.553,0.609-2.186,1.057c-0.633,0.448-1.169,0.973-1.609,1.573c-0.44,0.601-0.769,1.181-0.984,1.741
			C96.694,107.522,96.482,108.274,96.274,109.219z"/>
		<path fill="#660000" d="M118.682,124.47c0.319-4.932,0.631-10.775,0.934-17.533c0.208-4.915,0.359-9.999,0.456-15.251l2.235,0.024
			c0.464,0,1.178-0.008,2.139-0.024l-0.742,14.098l-0.527,14.267l-0.096,4.419c-0.946-0.032-1.651-0.048-2.115-0.048
			C120.773,124.422,120.012,124.438,118.682,124.47z"/>
		<path fill="#660000" d="M147.575,120.819c-0.032,0.256-0.116,0.732-0.252,1.429c-0.136,0.697-0.252,1.381-0.348,2.054
			c-1.169,0.272-2.293,0.456-3.375,0.552c-1.081,0.096-2.029,0.144-2.846,0.144c-1.729,0-3.327-0.232-4.792-0.696
			c-1.465-0.464-2.742-1.229-3.831-2.294c-1.089-1.064-1.889-2.385-2.401-3.963c-0.513-1.577-0.769-3.238-0.769-4.983
			c0-2.354,0.416-4.587,1.249-6.701c0.833-2.114,2.146-3.771,3.939-4.972c1.793-1.201,4.235-1.801,7.325-1.801
			c2.273,0,4.491,0.304,6.653,0.913c0.096,1.361,0.184,2.482,0.264,3.362c-1.521-0.48-2.762-0.805-3.723-0.973
			c-0.96-0.168-1.849-0.252-2.666-0.252c-1.409,0-2.67,0.256-3.783,0.769c-1.113,0.513-2.062,1.241-2.846,2.186
			c-0.785,0.945-1.349,2.065-1.693,3.362c-0.345,1.297-0.517,2.618-0.517,3.963c0,1.81,0.28,3.395,0.841,4.755
			c0.56,1.361,1.541,2.414,2.942,3.158s2.974,1.117,4.72,1.117C143.363,121.948,145.333,121.572,147.575,120.819z"/>
		<path fill="#660000" d="M165.011,99.588c1.681,0,3.282,0.24,4.803,0.72c1.521,0.48,2.838,1.241,3.951,2.282
			c1.113,1.041,1.958,2.354,2.534,3.939c0.576,1.585,0.864,3.258,0.864,5.02c0,1.906-0.308,3.731-0.924,5.476
			c-0.617,1.745-1.481,3.227-2.594,4.443s-2.474,2.109-4.083,2.678c-1.609,0.568-3.335,0.853-5.176,0.853
			c-1.713,0-3.331-0.256-4.852-0.769c-1.521-0.512-2.838-1.313-3.951-2.402c-1.113-1.088-1.958-2.421-2.534-3.999
			c-0.576-1.577-0.864-3.23-0.864-4.96c0-2.609,0.528-4.959,1.585-7.049s2.609-3.65,4.659-4.684
			C160.479,100.104,162.673,99.588,165.011,99.588z M164.903,102.638c-1.631,0-3.13,0.408-4.497,1.225
			c-1.367,0.817-2.378,2.046-3.034,3.687c-0.656,1.642-0.983,3.431-0.983,5.368c0,1.697,0.272,3.222,0.815,4.575
			s1.439,2.446,2.686,3.278c1.247,0.833,2.75,1.249,4.509,1.249c1.199,0,2.334-0.204,3.406-0.612
			c1.071-0.409,2.006-1.085,2.806-2.03c0.799-0.944,1.391-2.102,1.775-3.47c0.383-1.369,0.576-2.806,0.576-4.311
			c0-1.409-0.192-2.73-0.576-3.963c-0.384-1.233-0.972-2.222-1.763-2.966c-0.792-0.745-1.687-1.269-2.687-1.573
			C166.937,102.791,165.926,102.638,164.903,102.638z"/>
		<path fill="#660000" d="M181.823,124.47l0.264-3.482c0.048-0.736,0.111-1.897,0.191-3.482l0.575-14.626
			c0.016-1.201,0.024-2.114,0.024-2.738c0.753,0.016,1.442,0.024,2.067,0.024c0.673,0,1.338-0.008,1.995-0.024l-0.215,4.467
			c0.544-0.896,1.037-1.609,1.477-2.138s1.021-1.017,1.741-1.465c0.72-0.448,1.541-0.796,2.461-1.045
			c0.921-0.248,1.877-0.372,2.87-0.372c0.688,0,1.369,0.08,2.041,0.24c0.673,0.16,1.293,0.384,1.861,0.672
			c0.568,0.288,1.057,0.617,1.465,0.985s0.736,0.769,0.985,1.201c0.248,0.432,0.5,1.057,0.756,1.874
			c0.977-1.841,2.198-3.13,3.663-3.867c1.465-0.736,3.102-1.104,4.912-1.104c1.153,0,2.27,0.184,3.351,0.552
			c1.081,0.369,1.941,0.897,2.582,1.585s1.069,1.405,1.285,2.149s0.324,1.493,0.324,2.246c0,0.769-0.056,1.921-0.167,3.458
			c-0.111,1.537-0.238,3.879-0.381,7.025c-0.143,3.146-0.223,5.769-0.238,7.866c-0.85-0.032-1.515-0.048-1.996-0.048
			c-0.513,0-1.275,0.016-2.285,0.048c0.176-2.162,0.328-4.515,0.456-7.061l0.312-5.957c0.08-1.441,0.12-2.682,0.12-3.723
			c0-0.933-0.096-1.661-0.288-2.184c-0.192-0.523-0.501-0.994-0.925-1.412c-0.424-0.418-0.949-0.736-1.573-0.953
			s-1.337-0.326-2.138-0.326c-0.641,0-1.232,0.073-1.777,0.217c-0.513,0.144-1.009,0.361-1.489,0.65
			c-0.528,0.305-1.001,0.682-1.417,1.132c-0.417,0.434-0.769,0.923-1.057,1.469c-0.304,0.562-0.552,1.228-0.744,1.999
			c-0.24,0.963-0.409,2.143-0.504,3.54c-0.111,1.489-0.198,3.45-0.261,5.884l-0.19,6.725c-0.93-0.032-1.627-0.048-2.092-0.048
			c-0.433,0-1.162,0.016-2.188,0.048c0.16-1.985,0.288-4.027,0.384-6.125l0.288-5.812c0.08-1.793,0.12-3.322,0.12-4.587
			c0-0.816-0.081-1.509-0.24-2.078c-0.16-0.568-0.46-1.088-0.901-1.561c-0.44-0.472-0.972-0.832-1.597-1.081
			c-0.625-0.248-1.313-0.373-2.065-0.373c-0.8,0-1.561,0.141-2.281,0.42c-0.721,0.28-1.385,0.693-1.994,1.237
			c-0.608,0.544-1.121,1.213-1.537,2.005c-0.416,0.793-0.74,1.834-0.972,3.123c-0.232,1.289-0.416,3.535-0.551,6.737
			c-0.135,3.203-0.202,5.9-0.202,8.094c-1.026-0.032-1.731-0.048-2.115-0.048C183.594,124.422,182.865,124.438,181.823,124.47z"/>
		<path fill="#660000" d="M243.98,120.651c-0.192,0.881-0.384,2.002-0.577,3.362c-1.537,0.384-2.87,0.645-3.999,0.781
			c-1.128,0.136-2.254,0.204-3.375,0.204c-2.001,0-3.799-0.24-5.392-0.72c-1.593-0.48-2.958-1.317-4.095-2.51
			c-1.137-1.192-1.954-2.558-2.45-4.095s-0.744-3.162-0.744-4.875c0-2.386,0.456-4.599,1.369-6.641s2.286-3.646,4.119-4.815
			c1.833-1.169,4.159-1.753,6.977-1.753c1.457,0,2.85,0.212,4.179,0.636c1.329,0.425,2.434,1.069,3.314,1.934
			c0.88,0.865,1.561,1.934,2.042,3.206c0.48,1.273,0.721,2.663,0.721,4.167c0,0.577-0.048,1.137-0.144,1.682h-18.325
			c-0.064,0.88-0.096,1.553-0.096,2.017c0,1.681,0.352,3.23,1.057,4.647s1.745,2.49,3.123,3.218
			c1.376,0.729,2.962,1.093,4.755,1.093C238.504,122.188,241.018,121.676,243.98,120.651z M227.792,109.219h14.314
			c-0.016-1.009-0.081-1.793-0.192-2.354s-0.32-1.141-0.624-1.741c-0.305-0.601-0.717-1.121-1.237-1.562
			c-0.521-0.44-1.145-0.776-1.873-1.008c-0.729-0.232-1.517-0.349-2.366-0.349c-0.913,0-1.782,0.128-2.606,0.384
			c-0.825,0.256-1.553,0.609-2.186,1.057c-0.633,0.448-1.169,0.973-1.609,1.573c-0.44,0.601-0.769,1.181-0.984,1.741
			C228.213,107.522,228,108.274,227.792,109.219z"/>
		<path fill="#660000" d="M274.746,121.299c-0.176,0.785-0.369,1.826-0.577,3.123c-1.089,0.256-1.954,0.416-2.594,0.48
			c-0.641,0.064-1.249,0.096-1.825,0.096c-1.425,0-2.574-0.18-3.446-0.541c-0.873-0.36-1.542-0.937-2.006-1.729
			s-0.696-1.869-0.696-3.23c0-0.176,0.008-0.488,0.024-0.937c0.016-0.448,0.098-2.009,0.244-4.684l0.587-10.76h-3.209
			c0.064-0.672,0.12-1.633,0.168-2.882h3.274c0.081-0.896,0.161-2.426,0.242-4.587c1.501-0.288,2.771-0.56,3.809-0.816
			c-0.111,2.37-0.174,4.171-0.19,5.404h6.675c-0.081,1.009-0.128,1.969-0.144,2.882h-6.649l-0.641,13.522l-0.024,1.033
			c0,1.169,0.132,2.045,0.396,2.63c0.264,0.584,0.659,1.005,1.187,1.261c0.528,0.256,1.079,0.384,1.655,0.384
			c0.4,0,0.831-0.032,1.295-0.096C272.764,121.788,273.579,121.604,274.746,121.299z"/>
		<path fill="#660000" d="M290.382,99.588c1.681,0,3.282,0.24,4.803,0.72c1.521,0.48,2.838,1.241,3.951,2.282
			c1.113,1.041,1.958,2.354,2.534,3.939c0.576,1.585,0.864,3.258,0.864,5.02c0,1.906-0.308,3.731-0.924,5.476
			c-0.617,1.745-1.481,3.227-2.594,4.443s-2.474,2.109-4.083,2.678c-1.609,0.568-3.335,0.853-5.176,0.853
			c-1.713,0-3.331-0.256-4.852-0.769c-1.521-0.512-2.838-1.313-3.951-2.402c-1.113-1.088-1.958-2.421-2.534-3.999
			c-0.576-1.577-0.864-3.23-0.864-4.96c0-2.609,0.528-4.959,1.585-7.049s2.609-3.65,4.659-4.684
			C285.85,100.104,288.044,99.588,290.382,99.588z M290.273,102.638c-1.631,0-3.13,0.408-4.497,1.225
			c-1.367,0.817-2.378,2.046-3.034,3.687c-0.656,1.642-0.983,3.431-0.983,5.368c0,1.697,0.272,3.222,0.815,4.575
			s1.439,2.446,2.686,3.278c1.247,0.833,2.75,1.249,4.509,1.249c1.199,0,2.334-0.204,3.406-0.612
			c1.071-0.409,2.006-1.085,2.806-2.03c0.799-0.944,1.391-2.102,1.775-3.47c0.383-1.369,0.576-2.806,0.576-4.311
			c0-1.409-0.192-2.73-0.576-3.963c-0.384-1.233-0.972-2.222-1.763-2.966c-0.792-0.745-1.687-1.269-2.687-1.573
			C292.308,102.791,291.296,102.638,290.273,102.638z"/>
	</g>
</g>
<g>
	<g>
		<path fill="#FCA95C" d="M1178.172,216.926c3.862,66.023-6.83,104.952-79.075,119.83c-62.077,12.783-210.685,12.873-253.207-27.639
			c-17.479-16.652-18.733-160.212-6.302-169.3l35.873-13.033h296.757L1178.172,216.926z"/>
		<g>
			<path fill="#660000" d="M1173.52,217.212c1.952,34.188,2.121,74.618-27.924,97.345c-15.463,11.697-35.358,16.783-54.126,20.103
				c-17.479,3.093-35.301,4.478-53.011,5.351c-42.115,2.076-85.114,0.621-126.556-7.603c-16.871-3.348-34.187-7.985-49.28-16.461
				c-4.868-2.731-11.149-6.688-13.975-10.573c-2.574-3.541-3.756-8.128-4.866-12.289c-3.854-14.416-5.235-29.599-6.319-44.433
				c-1.296-17.72-1.692-35.518-1.361-53.278c0.268-14.218,0.826-28.643,3.313-42.672c0.361-2.037,0.777-4.074,1.358-6.062
				c0.242-0.83,0.527-1.647,0.842-2.454c0.157-0.406,1.177-2.331,0.688-1.561c1.405-2.21-3.766,1.274-0.369,0.04
				c2.806-1.019,5.609-2.038,8.413-3.057c7.142-2.594,14.28-5.188,21.42-7.782c1.522-0.553,3.045-1.106,4.567-1.659
				c-1.411,0.513-1.457,0.194-0.476,0.194c5.115,0,10.231,0,15.349,0c24.616,0,49.233,0,73.85,0c59.938,0,119.873,0,179.811,0
				c9.002,0,18.005,0,27.007,0c-1.437-1.097-2.871-2.194-4.307-3.291C1169.55,157.118,1171.534,187.166,1173.52,217.212
				c0.332,5.045,9.595,3.812,9.305-0.572c-1.984-30.047-3.969-60.094-5.954-90.142c-0.16-2.433-2.053-3.291-4.307-3.291
				c-41.835,0-83.671,0-125.505,0c-54.146,0-108.289,0-162.435,0c-3.07,0-7.359-0.778-10.346,0.307
				c-11.613,4.22-23.229,8.439-34.841,12.658c-7.995,2.905-8.884,13.756-9.969,21.027c-2.212,14.833-2.62,29.984-2.761,44.958
				c-0.167,17.742,0.479,35.495,1.926,53.179c1.17,14.313,2.684,28.951,6.718,42.785c1.209,4.146,2.748,8.568,5.414,12.027
				c3.695,4.793,9.706,8.355,14.865,11.318c14.951,8.587,31.869,13.377,48.608,17.041c41.136,9.003,84.234,10.454,126.191,8.966
				c18.471-0.655,36.961-2.075,55.244-4.829c19.081-2.873,38.31-7.395,55.388-16.654c17.267-9.361,30.111-24.099,36.401-42.737
				c7.165-21.233,6.619-44.537,5.357-66.613C1182.536,211.592,1173.27,212.819,1173.52,217.212z"/>
		</g>
	</g>
	<g>
		<path fill="#FFFFFF" d="M1074.955,165.627c39.08,25.263,31.268,106.884-25.405,91.336
			C996.785,245.304,1020.233,142.309,1074.955,165.627z"/>
		<g>
			<path fill="#660000" d="M1070.168,167.51c24.276,16.054,33.139,57.255,13.618,80.292c-9.86,11.637-26.601,9.948-39.158,3.686
				c-12.604-6.287-18.312-20.555-19.409-33.845c-1.174-14.215,2.855-29.569,11.481-40.989c3.701-4.9,8.454-8.977,14.272-11.069
				c6.368-2.289,13.896-0.174,19.847,2.292c2.65,1.099,12.032-2.938,8.271-4.497c-14.082-5.834-29.539-4.435-42.162,4.189
				c-11.325,7.738-17.978,21.213-20.738,34.308c-2.822,13.386-1.733,28.33,5.366,40.247c7.839,13.151,22.781,18.802,37.577,19.269
				c11.25,0.355,22.847-3.102,31.176-10.873c7.672-7.156,11.813-17.059,13.379-27.297c3.354-21.928-4.99-46.94-23.945-59.476
				C1077.014,161.939,1067.966,166.053,1070.168,167.51z"/>
		</g>
	</g>
	<g>
		<path fill="#FFFFFF" d="M949.888,165.627c46.498,12.594,66.44,93.279-1.957,91.336
			C891.263,255.023,893.216,148.137,949.888,165.627z"/>
		<g>
			<path fill="#660000" d="M945.721,167.76c26.529,7.456,49.006,40.419,39.232,67.916c-5.397,15.188-20.76,19.861-35.605,18.889
				c-14.291-0.938-25.562-10.726-31.719-23.154c-6.925-13.979-8.118-31.335-3.073-46.084c2.203-6.441,5.942-12.536,11.563-16.513
				C931.928,164.702,939.298,165.844,945.721,167.76c2.262,0.674,5.168-0.168,7.187-1.203c0.985-0.505,3.441-2.379,1.147-3.064
				c-13.567-4.045-28.391-2.127-39.285,7.313c-9.513,8.241-12.992,21.666-13.462,33.757c-0.523,13.562,3.325,27.359,11.419,38.296
				c9.145,12.354,23.186,16.783,38.051,16.41c13.273-0.334,27.521-4.197,37.127-13.804c7.578-7.577,10.063-18.479,9.322-28.878
				c-1.697-23.902-20.175-46.633-43.172-53.096c-2.288-0.643-5.142,0.155-7.186,1.203
				C945.912,165.186,943.401,167.108,945.721,167.76z"/>
		</g>
	</g>
	<g>
		<path fill="#FFF5E3" d="M1073.333,72.349c39.086,9.715,72.308,0,97.713,44.694c1.951,13.605-5.866,71.903-19.545,81.62
			c-25.403,15.545-31.263-13.604-37.128-25.263c-3.91-5.83-3.91-23.321-9.771-27.206c-9.771-5.83-9.771,13.603-17.586,11.659
			c-23.452-5.831-23.452-21.376-52.766-7.774c-23.451,13.604-17.586,27.208-41.038,13.604
			c-21.494-13.604-17.586-27.206-46.898-17.489c-13.682,3.885-33.22,34.977-42.994,5.829c-23.447,9.717-25.402,97.166-60.574,75.789
			c-25.405-13.604-11.728-95.221,1.95-112.712c9.774-25.262,31.271-23.319,54.716-31.092L1073.333,72.349z"/>
		<g>
			<path fill="#660000" d="M1069.202,74.617c19.534,4.757,40.261,4.491,59.379,10.862c9.747,3.249,18.177,8.878,25.265,16.272
				c4.368,4.558,7.999,9.792,11.23,15.195c1.576,2.635,1.18,6.074,1.118,9.074c-0.37,18.066-3.707,36.852-9.16,54.052
				c-1.813,5.717-4.332,14.907-9.91,18.196c-8.155,4.809-14.55,0.062-18.968-7.188c-3.786-6.211-5.327-13.541-9.067-19.72
				c-4.624-7.638-2.97-17.742-8.008-25.373c-4.424-6.701-15.418-2.866-19.262,2.329c-1.865,2.521-2.942,5.523-4.956,7.948
				c-0.428,0.514,5.179-0.383,1.58-1.422c-1.246-0.36-2.465-0.809-3.681-1.258c-2.478-0.916-4.851-2.097-7.178-3.338
				c-7.132-3.803-13.021-7.756-21.354-8.133c-11.767-0.532-24.253,5.508-33.385,12.347c-3.951,2.959-7.38,6.542-10.852,10.031
				c-0.568,0.571-3.266,2.624-2.518,2.386c0.956-0.305-1.221-0.378-1.317-0.403c-1.639-0.414-3.2-1.139-4.734-1.828
				c-9.865-4.431-16.383-12.171-24.322-19.068c-4.674-4.06-10.312-5.435-16.405-5.163c-8.321,0.372-17.689,2.832-24.838,7.18
				c-5.923,3.603-10.917,8.504-16.749,12.23c-2.313,1.479-3.431,2.363-5.47,1.584c-4.021-1.537-5.917-7.134-7.201-10.759
				c-0.799-2.254-5.621-0.955-7.034-0.332c-11.864,5.225-16.775,18.729-21.057,30.029c-5.185,13.69-8.935,28.745-17.143,41.038
				c-1.449,2.17-3.12,4.232-5.146,5.886c-0.547,0.447-1.694,1.129-1.979,1.249c0.112-0.047-0.437,0.147-1.256,0.081
				c-5.753-0.464-11.313-4.71-14.3-9.458c-8.571-13.637-7.554-33.367-6.228-48.678c1.429-16.506,4.558-33.815,11.392-49.012
				c1.023-2.276,2.203-4.466,3.717-6.456c1.643-2.161,2.396-5.351,3.837-7.715c1.549-2.54,3.521-4.863,5.731-6.845
				c7.494-6.717,18.331-8.345,27.771-10.616c2.634-0.634,5.257-1.309,7.868-2.031c0.74-0.205,6.072-1.464,2.776-1.243
				c0.601-0.04,1.199-0.081,1.799-0.121c3.192-0.214,6.386-0.428,9.577-0.642c12.31-0.825,24.616-1.65,36.925-2.475
				c41.852-2.806,83.701-5.611,125.553-8.417c2.298-0.154,5.244-0.754,6.799-2.646c1.503-1.828-1.273-2.534-2.623-2.443
				c-49.771,3.336-99.542,6.672-149.313,10.009c-7.849,0.526-15.697,1.052-23.548,1.579c-6.138,0.412-12.262,3.008-18.248,4.449
				c-9.884,2.378-20.017,4.647-28.736,10.114c-3.989,2.5-7.415,5.657-10.281,9.385c-2.882,3.748-4.421,8.217-6.896,12.178
				c-3.513,5.619-5.685,12.042-7.57,18.353c-5.142,17.197-7.585,35.519-7.421,53.453c0.118,12.994,1.45,31.607,13.402,39.702
				c10.956,7.42,24.544,5.362,33.245-4.463c9.295-10.497,13.301-25.839,17.923-38.743c2.48-6.926,5.014-13.862,8.291-20.458
				c1.939-3.902,5.444-10.082,8.968-11.634c-2.345-0.111-4.688-0.221-7.034-0.332c3.063,8.651,8.017,14.692,17.812,13.225
				c8.637-1.294,15.729-7.404,22.376-12.581c6.655-5.182,15.947-10.412,24.758-8.244c7.397,1.82,12.842,10.163,18.423,14.827
				c7.526,6.289,18.096,12.985,28.324,10.709c8.867-1.973,14.233-10.439,21.008-15.777c8.505-6.699,19.23-10.814,29.374-5.864
				c8.051,3.929,15.147,9.203,24.22,10.77c8.646,1.493,12.563-5.673,16.318-11.708c0.396-0.638,0.857-1.22,1.338-1.795
				c1.201-1.441-5.322-0.09-2.538,1.043c1.776,0.724,2.652,3.027,3.319,4.636c1.945,4.689,2.566,9.954,3.699,14.873
				c1.6,6.942,5.348,13.95,8.271,20.457c2.988,6.656,6.966,13.307,13.88,16.383c8.159,3.629,20.004-0.06,26.745-5.138
				c5.308-3.997,8.089-10.678,10.338-16.711c6.381-17.118,9.232-36.175,10.357-54.344c0.202-3.267,0.313-6.547,0.18-9.819
				c-0.211-5.082-4.597-9.896-7.53-13.867c-6.951-9.412-16.088-16.747-26.767-21.494c-20.183-8.973-43.447-7.733-64.642-12.894
				c-2.421-0.589-5.033-0.09-7.212,1.107C1069.313,71.705,1066.757,74.021,1069.202,74.617z"/>
		</g>
	</g>
	<g>
		<path fill="#FFF5E3" d="M1030.344,82.064c-21.494-5.828-62.533-7.771-78.167,7.774c15.634,19.435,127.023,19.435,119.205-9.714
			c-5.864-23.322-154.378-11.661-168.062,3.884c-54.714,56.357,130.932,40.809,154.384,40.809c15.629,0,68.394,5.832,76.212-13.601
			c7.816-17.491-23.967-30.535-39.602-32.478"/>
		<g>
			<path fill="#660000" d="M1034.54,80.042c-14.88-3.939-30.647-5.078-45.978-4.069c-14.094,0.928-30.451,4.117-41.031,14.212
				c-0.523,0.5-0.622,0.881-0.173,1.417c7.066,8.438,21.948,10.374,32.066,11.874c16.249,2.409,32.922,2.686,49.268,1.136
				c13.634-1.292,28.926-3.646,40.581-11.368c6.414-4.249,11.155-13.146,3.955-19.076c-7.859-6.472-21.073-7.25-30.689-8.211
				c-16.25-1.624-32.713-1.391-49.006-0.643c-16.937,0.777-33.863,2.408-50.616,5.019c-12.438,1.939-25.259,4.273-36.87,9.309
				c-7.952,3.449-15.101,11.593-17.365,19.996c-2.094,7.767,2.868,13.681,9.297,17.321c9.663,5.471,21.394,7.39,32.237,8.887
				c14.497,2.001,29.146,2.706,43.769,2.978c25.169,0.467,50.289-0.764,75.429-1.725c4.258-0.163,5.526-0.185,10.317-0.009
				c8.287,0.302,16.563,0.71,24.859,0.688c16.276-0.044,36.941-0.494,50.074-11.549c8.889-7.482,5.653-18.413-1.989-25.206
				c-9.273-8.243-22.941-12.798-35.055-14.429c-2.265-0.305-11.813,3.587-6.611,4.287c12.813,1.726,44.234,12.129,38.239,30.267
				c-2.288,6.921-9.359,9.344-15.866,10.604c-9.098,1.762-18.539,1.83-27.771,1.708c-11.064-0.146-22.068-0.998-33.133-0.56
				c-10.889,0.431-21.771,0.957-32.661,1.292c-28.753,0.885-58.198,1.428-86.681-3.211c-14.213-2.315-43.734-8.903-31.655-29.223
				c2.197-3.699,5.577-7.942,8.698-9.785c0.76-0.448,2.323-1.081,4.047-1.703c2.37-0.857,4.505-1.436,7.242-2.143
				c14.236-3.677,29.038-5.442,43.646-6.852c17.118-1.652,34.352-2.463,51.549-2.111c13.178,0.27,27.053,0.81,39.691,4.907
				c6.782,2.199,13.424,7.41,8.781,15.098c-5.147,8.527-20.539,9.867-29.185,10.889c-15.602,1.844-31.656,1.627-47.219-0.496
				c-10.021-1.367-24.743-3.137-31.739-11.488c-0.059,0.473-0.115,0.945-0.173,1.417c8.534-8.143,21.557-9.167,32.756-9.533
				c12.213-0.399,24.759,1.001,36.569,4.128c2.242,0.594,5.158-0.314,7.163-1.282C1034.205,82.375,1036.811,80.643,1034.54,80.042
				L1034.54,80.042z"/>
		</g>
	</g>
	<path fill="#660000" stroke="#660000" stroke-width="6.062" stroke-miterlimit="10" d="M1056.485,204.669
		c4.153,11.676-0.318,22.159-9.987,23.411c-9.669,1.25-20.871-7.202-25.02-18.88c-4.155-11.677,0.314-22.16,9.979-23.41
		C1041.13,184.537,1052.335,192.988,1056.485,204.669z"/>
	<path fill="#660000" stroke="#660000" stroke-width="5.3005" stroke-miterlimit="10" d="M948.423,203.447
		c0,12.484-9.357,22.604-20.908,22.604c-11.543,0-20.902-10.121-20.902-22.604s9.359-22.604,20.902-22.604
		C939.064,180.842,948.423,190.963,948.423,203.447z"/>
	<g>
		<g>
			<path fill="#660000" d="M982.524,292.783c12.889,13.639,32.521,9.609,45.456-1.918c5.182-4.617-2.86-8.688-6.902-5.088
				c-8.354,7.443-20.458,11.633-29.214,2.367C988.477,284.563,978.815,288.859,982.524,292.783L982.524,292.783z"/>
		</g>
	</g>
	<path fill="#FFBDC9" d="M934.066,281.012c0,6.613-14.626,11.971-32.667,11.971s-32.667-5.356-32.667-11.971
		c0-6.605,14.626-11.967,32.667-11.967S934.066,274.406,934.066,281.012z"/>
	<path fill="#FFBDC9" d="M1141.117,281.012c0,6.613-14.627,11.971-32.668,11.971s-32.668-5.356-32.668-11.971
		c0-6.605,14.627-11.967,32.668-11.967S1141.117,274.406,1141.117,281.012z"/>
	<g>
		<g>
			<path fill="#660000" d="M881.946,333.199c6.489,17.269,6.828,34.814-2.989,50.924c-3.36,5.514,11.749,3.453,14.012-0.258
				c10.605-17.4,11.294-35.844,4.192-54.742C895.398,324.434,880.377,329.023,881.946,333.199L881.946,333.199z"/>
		</g>
	</g>
	<g>
		<g>
			<path fill="#660000" d="M1098.88,339.669c-4.337,17.227,11.289,37.514,27.077,42.935c3.058,1.051,7.891-0.72,10.623-1.982
				c1.502-0.693,5.016-2.734,1.906-3.803c-13.979-4.801-28.412-24.808-24.616-39.888
				C1114.646,333.848,1099.813,335.962,1098.88,339.669L1098.88,339.669z"/>
		</g>
	</g>
	<g>
		<g>
			<path fill="#660000" d="M1173.149,223.809c0.399,5.113,3.854,9.675,6.894,13.583c4.861,6.252,10.711,11.76,16.518,17.115
				c10.406,9.598,22.385,18.029,31.853,28.587c2.25,2.509,13.051-1.517,10.678-4.162c-8.918-9.944-20.147-17.999-30.04-26.935
				c-5.74-5.187-11.348-10.555-16.399-16.42c-3.555-4.125-7.646-9.168-8.091-14.827
				C1184.332,217.848,1172.857,220.091,1173.149,223.809L1173.149,223.809z"/>
		</g>
	</g>
	<g>
		<g>
			<path fill="#660000" d="M836.818,242.609c-13.289-3.554-20.661-21.372-25.249-32.777c-5.324-13.238-10.029-28.554-9.646-42.984
				c0.043-1.623-11.324-0.167-11.41,3.058c-0.396,14.881,4.617,30.484,10.103,44.118c4.916,12.222,12.809,29.173,26.803,32.913
				c2.436,0.651,5.787-0.486,7.967-1.49C836.359,244.996,839.274,243.265,836.818,242.609L836.818,242.609z"/>
		</g>
	</g>
</g>
</svg>
