<?xml version="1.0" encoding="utf-8"?>
<!-- Generator: Adobe Illustrator 15.1.0, SVG Export Plug-In . SVG Version: 6.00 Build 0)  -->
<!DOCTYPE svg PUBLIC "-//W3C//DTD SVG 1.1//EN" "http://www.w3.org/Graphics/SVG/1.1/DTD/svg11.dtd">
<svg version="1.1" id="Layer_1" xmlns="http://www.w3.org/2000/svg" xmlns:xlink="http://www.w3.org/1999/xlink" x="0px" y="0px"
	 width="250px" height="250px" viewBox="0 0 250 250" enable-background="new 0 0 250 250" xml:space="preserve">
<g>
	<g>
		<path fill="#FCA95C" d="M226.204,126.465c2.196,37.773-3.887,60.045-44.99,68.556c-35.317,7.314-119.866,7.365-144.059-15.812
			c-9.946-9.529-10.659-91.66-3.586-96.86l20.411-7.457h168.836L226.204,126.465z"/>
		<g>
			<path fill="#660000" d="M223.55,126.628c0.979,17.563,1.428,37.944-11.34,51.713c-12.65,13.643-34.559,15.983-52.053,17.617
				c-21.002,1.961-42.313,1.861-63.301-0.181c-17.825-1.734-38.143-4.439-53.365-14.649c-4.807-3.225-6.428-6.656-7.796-12.156
				c-1.825-7.334-2.583-14.974-3.187-22.49c-1.332-16.593-1.59-33.542,0.068-50.122c0.368-3.678,0.372-9.801,2.87-12.837
				c-1.125,1.368-1.395,0.762,0.417,0.1c1.452-0.53,2.903-1.061,4.355-1.591c3.753-1.372,7.506-2.743,11.26-4.114
				c0.934-0.341,1.867-0.683,2.801-1.023c0.615-0.225-0.943,0.038-0.303,0.038c0.743,0,1.487,0,2.23,0c3.485,0,6.97,0,10.455,0
				c51.678,0,103.357,0,155.036,0c0.307,0,0.614,0,0.922,0c-0.819-0.625-1.638-1.251-2.457-1.877
				C221.291,92.246,222.42,109.437,223.55,126.628c0.188,2.878,5.473,2.175,5.309-0.326c-1.129-17.191-2.258-34.382-3.388-51.573
				c-0.091-1.388-1.172-1.877-2.457-1.877c-49.729,0-99.459,0-149.188,0c-6.508,0-13.016,0-19.524,0
				c-1.078,0-2.219,0.622-3.202,0.981c-3.68,1.344-7.359,2.688-11.038,4.033c-3.767,1.376-8.501,2.02-10.268,6.021
				c-2.041,4.622-2.316,10.284-2.755,15.235c-0.716,8.078-0.853,16.211-0.805,24.315c0.093,15.759,0.588,32.253,4.411,47.618
				c1.22,4.905,2.914,8.584,6.88,11.771c5.96,4.791,13.438,7.708,20.646,10.002c19.147,6.096,39.708,7.764,59.683,8.4
				c19.323,0.616,38.952-0.077,58.053-3.218c17.024-2.799,35.462-8.574,45.302-23.833c8.971-13.913,8.535-32.011,7.65-47.877
				C228.698,123.421,223.41,124.121,223.55,126.628z"/>
		</g>
	</g>
	<g>
		<path fill="#FFFFFF" d="M167.479,97.115c22.234,14.453,17.789,61.15-14.454,52.255C123.005,142.699,136.346,83.775,167.479,97.115
			z"/>
		<g>
			<path fill="#660000" d="M164.748,98.189c10.669,7.214,15.05,20.968,13.185,33.376c-0.85,5.658-3.357,11.271-7.895,14.891
				c-5.449,4.348-13.803,2.646-19.594-0.107c-11.223-5.335-12.759-20.395-10.223-31.045c1.31-5.496,3.971-10.659,7.969-14.667
				c4.815-4.827,10.947-4.677,16.93-2.238c1.516,0.618,6.864-1.691,4.719-2.565c-13.257-5.406-26.538,0.749-32.821,13.17
				c-5.855,11.577-5.664,28.67,4.91,37.509c10.653,8.906,29.458,6.855,37.425-4.468c8.319-11.823,5.567-29.698-3.039-40.507
				c-1.718-2.157-3.827-3.958-6.103-5.496C168.666,94.997,163.486,97.336,164.748,98.189z"/>
		</g>
	</g>
	<g>
		<path fill="#FFFFFF" d="M96.324,97.115c26.455,7.205,37.801,53.366-1.114,52.255C62.969,148.26,64.081,87.108,96.324,97.115z"/>
		<g>
			<path fill="#660000" d="M93.947,98.332c12.355,3.586,21.252,15.1,23.26,27.592c0.906,5.638-0.111,11.647-3.717,16.177
				c-4.81,6.043-14.095,7.027-21.15,5.285c-12.305-3.039-17.689-16.808-17.84-28.276c-0.073-5.568,1.27-11.516,4.414-16.175
				C82.639,97.411,87.802,96.538,93.947,98.332c1.46,0.427,6.692-1.868,4.755-2.434c-12.7-3.708-24.908,2.18-28.753,14.991
				c-3.683,12.268-0.025,28.003,10.646,35.687c10.886,7.838,31.22,4.972,39.15-5.954c8.206-11.306,1.606-27.448-7.027-36.366
				c-3.835-3.962-8.735-6.825-14.016-8.358C97.241,95.474,92.011,97.771,93.947,98.332z"/>
		</g>
	</g>
	<g>
		<path fill="#FFF5E3" d="M166.557,43.749c22.237,5.558,41.139,0,55.592,25.571c1.11,7.783-3.337,41.137-11.118,46.696
			c-14.454,8.894-17.787-7.783-21.124-14.453c-2.226-3.335-2.226-13.342-5.559-15.565c-5.559-3.335-5.559,7.782-10.005,6.67
			c-13.344-3.336-13.344-12.229-30.021-4.447c-13.341,7.783-10.005,15.566-23.347,7.783c-12.229-7.783-10.005-15.564-26.683-10.005
			c-7.784,2.223-18.901,20.011-24.462,3.334c-13.339,5.56-14.453,55.59-34.464,43.361c-14.453-7.783-6.671-54.479,1.111-64.485
			c5.561-14.454,17.79-13.342,31.13-17.789L166.557,43.749z"/>
		<g>
			<path fill="#660000" d="M164.2,45.042c9.944,2.398,20.248,2.692,30.166,5.137c4.755,1.172,9.178,3.172,13.151,6.035
				c2.113,1.522,3.957,3.386,5.701,5.307c2.003,2.206,5.712,6.14,6.066,9.059c0.962,7.921-0.957,16.776-2.495,24.504
				c-1.19,5.982-3.626,22.578-12.427,22.008c-6.854-0.444-10.118-12.674-12.277-17.847c-2.401-5.756-1.801-18.566-11.696-14.653
				c-2.929,1.158-3.983,3.881-5.537,6.369c-0.628,1.004,1.524,0.373-0.733-0.349c-1.128-0.361-2.21-0.855-3.285-1.345
				c-2.07-0.943-3.996-2.192-5.972-3.313c-7.621-4.322-17.518-1.752-24.422,2.927c-3.157,2.14-5.877,4.62-8.539,7.333
				c-1.308,1.333-1.312,1.713-3.135,1.163c-2.693-0.813-5.224-2.5-7.475-4.116c-4.472-3.212-8.024-9.43-13.836-10.35
				c-6.031-0.955-13.44,0.907-18.52,4.241c-2.608,1.711-4.987,3.731-7.483,5.596c-1.517,1.133-3.361,2.776-5.239,1.58
				c-1.906-1.213-2.731-3.781-3.464-5.778c-0.467-1.272-3.203-0.565-4.014-0.189c-5.376,2.487-8.012,7.606-10.263,12.833
				c-3.036,7.048-5.104,14.471-8.146,21.52c-1.287,2.982-2.802,5.872-4.904,8.363c-2.295,2.721-4.396,2.238-7.33,0.538
				c-6.308-3.656-7.32-12.484-7.772-19.038c-1.148-16.629,2.429-35.255,11.409-49.427c3.055-4.82,8.189-6.739,13.439-8.128
				c3.366-0.891,8.702-2.977,11.455-3.163c3.192-0.215,6.384-0.431,9.576-0.646c29.722-2.004,59.443-4.007,89.164-6.011
				c1.863-0.125,6.283-3.167,2.383-2.904c-24.629,1.66-49.257,3.321-73.885,4.981c-8.507,0.573-17.353,0.502-25.796,1.753
				c-4.856,0.719-9.97,2.592-14.741,3.855c-4.478,1.185-8.734,2.898-12.492,5.634c-5.731,4.172-9.303,12.628-11.528,19.225
				c-4.081,12.1-5.757,25.739-4.666,38.458c0.798,9.304,4.695,19.635,15.547,19.859c9.68,0.199,14.32-9.979,17.318-17.521
				c2.177-5.477,3.938-11.109,6.109-16.589c1.404-3.543,3.513-9.892,7.307-11.647c-1.338-0.063-2.676-0.126-4.014-0.189
				c1.149,3.13,3.007,7.34,6.9,7.642c3.667,0.285,6.932-0.944,10.013-2.863c7.427-4.625,16.031-14.162,24.68-6.173
				c6.088,5.624,13.359,13.584,22.534,11.518c3.226-0.727,5.519-3.412,7.729-5.651c4.75-4.813,12.111-9.841,19.071-7.185
				c5.825,2.224,14.188,10.362,20.617,5.296c1.025-0.808,1.751-1.742,2.397-2.875c0.457-0.801,0.894-1.613,1.373-2.4
				c0.584-0.958-1.932-1.483-0.019,0.161c3.257,2.797,2.799,10.257,4.388,14.063c2.323,5.568,4.714,14.065,10.443,17.09
				c5.977,3.155,15.004,0.205,18.832-5.104c4.789-6.643,6.229-16.165,7.588-24.023c1.23-7.114,3.896-17.47-0.107-23.938
				c-5.439-8.791-13.279-14.884-23.174-17.784c-10.166-2.98-20.974-2.951-31.262-5.431c-1.383-0.333-2.869-0.053-4.114,0.631
				C164.266,43.38,162.803,44.706,164.2,45.042z"/>
		</g>
	</g>
	<g>
		<path fill="#FFF5E3" d="M142.099,49.307c-12.229-3.334-35.579-4.446-44.472,4.447c8.894,11.12,72.268,11.12,67.82-5.557
			c-3.336-13.344-87.831-6.672-95.617,2.222C38.7,82.663,144.321,73.767,157.665,73.767c8.892,0,38.911,3.336,43.359-7.782
			c4.447-10.007-13.636-17.469-22.53-18.582"/>
		<g>
			<path fill="#660000" d="M144.493,48.153c-14.746-3.857-37.402-5.484-49.517,5.799c-0.299,0.278-0.356,0.508-0.099,0.809
				c3.414,3.98,9.822,5.23,14.687,6.195c7.627,1.513,15.469,1.865,23.226,1.735c7.528-0.125,15.184-0.957,22.436-3.044
				c4.579-1.319,10.287-3.375,12.729-7.813c5.354-9.732-15.008-11.371-19.797-11.821c-16.309-1.532-33.114-0.428-49.32,1.667
				c-6.959,0.899-13.922,2.022-20.696,3.883c-4.088,1.123-8.521,2.479-11.509,5.633c-2.877,3.038-5.958,7.125-5.341,11.563
				c0.523,3.773,4.42,6.116,7.551,7.528c11.491,5.182,25.642,5.337,38.004,5.697c13.511,0.394,27.035-0.086,40.533-0.678
				c14.196-0.623,28.959,1.815,42.988-1.486c6.549-1.542,16.135-5.453,13.913-13.952c-2.208-8.444-15.977-12.559-23.392-13.617
				c-1.383-0.197-2.836,0.127-4.088,0.731c-0.391,0.189-2.085,1.379-0.701,1.577c7.782,1.111,20.299,5.073,22.56,13.721
				c2.699,10.325-14.438,10.554-20.341,10.714c-11.226,0.303-22.378-0.354-33.619,0.11c-14.355,0.592-28.75,0.902-43.101,0.04
				c-6.83-0.41-13.676-1.117-20.348-2.674c-4.436-1.036-9.385-2.52-12.557-5.99c-2.96-3.238-1.331-7.536,0.794-10.698
				c2.938-4.371,6.238-5.599,11.181-6.858c15.665-3.991,32.526-4.973,48.629-5.046c7.479-0.034,15.068,0.218,22.441,1.564
				c3.362,0.614,9.609,1.623,10.786,5.54c3.696,12.304-27.863,11.408-33.618,11.217c-8.583-0.284-19.417-0.862-26.783-5.851
				c-2.63-1.781,0.244-2.611,2.389-3.665c3.9-1.916,8.578-2.272,12.844-2.524c7.449-0.439,15.137,0.417,22.347,2.303
				C141.086,50.822,146.241,48.611,144.493,48.153L144.493,48.153z"/>
		</g>
	</g>
	<path fill="#660000" stroke="#660000" stroke-width="3.4585" stroke-miterlimit="10" d="M156.972,119.452
		c2.364,6.679-0.182,12.678-5.684,13.394c-5.499,0.715-11.874-4.12-14.233-10.802c-2.364-6.681,0.179-12.678,5.678-13.394
		C148.234,107.934,154.611,112.769,156.972,119.452z"/>
	
		<ellipse fill="#660000" stroke="#660000" stroke-width="3.0241" stroke-miterlimit="10" cx="83.596" cy="118.753" rx="11.894" ry="12.932"/>
	<g>
		<g>
			<path fill="#660000" d="M114.885,169.859c7.484,7.728,18.372,5.513,25.874-1.098c2.973-2.618-1.622-4.943-3.938-2.902
				c-4.833,4.258-11.512,6.615-16.607,1.354C118.26,165.195,112.75,167.654,114.885,169.859L114.885,169.859z"/>
		</g>
	</g>
	<ellipse fill="#FFBDC9" cx="68.737" cy="163.13" rx="18.585" ry="6.847"/>
	<ellipse fill="#FFBDC9" cx="186.535" cy="163.13" rx="18.586" ry="6.847"/>
	<g>
		<g>
			<path fill="#660000" d="M57.656,192.982c3.652,9.985,3.833,19.797-1.699,29.138c-1.885,3.184,6.732,1.985,7.994-0.146
				c5.99-10.114,6.391-20.364,2.386-31.317C65.359,187.983,56.777,190.576,57.656,192.982L57.656,192.982z"/>
		</g>
	</g>
	<g>
		<g>
			<path fill="#660000" d="M181.079,196.686c-2.189,9.637,5.947,21.111,14.889,24.372c1.753,0.64,3.886,0.068,5.578-0.536
				c0.164-0.059,4.039-1.866,2.609-2.388c-8.28-3.02-16.604-13.856-14.523-23.011C190.044,193.308,181.555,194.591,181.079,196.686
				L181.079,196.686z"/>
		</g>
	</g>
	<g>
		<g>
			<path fill="#660000" d="M221.723,130.195c1.085,10.842,12.684,18.565,19.408,26.049c1.285,1.431,7.446-0.867,6.092-2.375
				c-6.591-7.335-17.931-14.835-18.99-25.418C228.063,126.764,221.513,128.098,221.723,130.195L221.723,130.195z"/>
		</g>
	</g>
	<g>
		<g>
			<path fill="#660000" d="M32.001,141.16c-7.688-2.22-11.78-12.299-14.458-18.992c-3.013-7.531-5.549-16.164-5.393-24.353
				c0.018-0.941-6.475-0.087-6.51,1.744c-0.165,8.637,2.672,17.552,5.843,25.478c2.806,7.014,7.254,16.311,15.154,18.591
				C28.099,144.051,33.824,141.687,32.001,141.16L32.001,141.16z"/>
		</g>
	</g>
</g>
</svg>
