<?xml version="1.0" encoding="utf-8"?>
<!-- Generator: Adobe Illustrator 15.1.0, SVG Export Plug-In . SVG Version: 6.00 Build 0)  -->
<!DOCTYPE svg PUBLIC "-//W3C//DTD SVG 1.1//EN" "http://www.w3.org/Graphics/SVG/1.1/DTD/svg11.dtd">
<svg version="1.1" id="Layer_1" xmlns="http://www.w3.org/2000/svg" xmlns:xlink="http://www.w3.org/1999/xlink" x="0px" y="0px"
	 width="1280px" height="450px" viewBox="0 0 1280 450" enable-background="new 0 0 1280 450" xml:space="preserve">
<linearGradient id="SVGID_1_" gradientUnits="userSpaceOnUse" x1="0.9614" y1="446.7715" x2="1280.9604" y2="2.5611">
	<stop  offset="0" style="stop-color:#F8AD9E"/>
	<stop  offset="1" style="stop-color:#FFF3BF"/>
</linearGradient>
<rect fill="url(#SVGID_1_)" width="1280" height="450"/>
<text transform="matrix(1 0 0 1 71.7866 296.2773)"><tspan x="0" y="0" fill="#660000" font-family="'ErasITC-Medium'" font-size="25">A Rice University servery finder,</tspan><tspan x="0" y="30" fill="#660000" font-family="'ErasITC-Medium'" font-size="25">customized for your needs!</tspan></text>
<text transform="matrix(1 0 0 1 71.7866 253.2061)" fill="#4A0300" font-family="'HoboStd'" font-size="102.5717">SnackRice</text>
<text transform="matrix(1 0 0 1 71.7866 153.7231)" fill="#660000" font-family="'ErasITC-Medium'" font-size="36">Welcome to</text>
<g>
	<path fill="#FCA95C" d="M1133.549,221.042c3.862,66.023-6.83,104.951-79.075,119.829c-62.078,12.783-210.685,12.873-253.207-27.638
		c-17.48-16.653-18.734-160.212-6.302-169.3l35.873-13.033h296.757L1133.549,221.042z"/>
	<g>
		<path fill="#660000" d="M1128.896,221.328c1.953,34.187,2.122,74.617-27.923,97.345c-15.463,11.697-35.359,16.783-54.126,20.103
			c-17.479,3.092-35.301,4.477-53.011,5.35c-42.115,2.076-85.114,0.621-126.556-7.602c-16.871-3.348-34.186-7.986-49.28-16.461
			c-4.868-2.732-11.149-6.688-13.975-10.574c-2.574-3.541-3.755-8.128-4.866-12.289c-3.853-14.416-5.235-29.598-6.319-44.433
			c-1.296-17.719-1.693-35.517-1.361-53.277c0.267-14.218,0.826-28.643,3.312-42.672c0.361-2.037,0.777-4.074,1.358-6.062
			c0.243-0.83,0.528-1.647,0.842-2.454c0.157-0.406,1.177-2.331,0.688-1.561c1.405-2.21-3.766,1.274-0.369,0.04
			c2.805-1.019,5.609-2.038,8.413-3.057c7.141-2.594,14.28-5.188,21.42-7.782c1.522-0.553,3.045-1.106,4.567-1.659
			c-1.411,0.513-1.457,0.194-0.476,0.194c5.116,0,10.232,0,15.349,0c24.616,0,49.233,0,73.85,0c59.937,0,119.873,0,179.81,0
			c9.002,0,18.005,0,27.007,0c-1.436-1.097-2.871-2.194-4.307-3.291C1124.927,161.234,1126.911,191.281,1128.896,221.328
			c0.333,5.045,9.595,3.812,9.305-0.572c-1.984-30.047-3.969-60.094-5.954-90.142c-0.16-2.433-2.053-3.291-4.307-3.291
			c-41.835,0-83.67,0-125.505,0c-54.145,0-108.289,0-162.434,0c-3.07,0-7.359-0.778-10.346,0.307
			c-11.613,4.22-23.228,8.439-34.841,12.658c-7.995,2.905-8.883,13.756-9.968,21.027c-2.212,14.833-2.62,29.984-2.761,44.958
			c-0.167,17.742,0.479,35.495,1.926,53.178c1.17,14.313,2.683,28.951,6.717,42.785c1.209,4.146,2.749,8.569,5.415,12.027
			c3.695,4.793,9.706,8.356,14.865,11.319c14.951,8.587,31.869,13.377,48.608,17.041c41.136,9.003,84.235,10.454,126.192,8.966
			c18.47-0.655,36.961-2.075,55.244-4.829c19.081-2.874,38.309-7.395,55.387-16.655c17.267-9.361,30.112-24.098,36.402-42.737
			c7.165-21.233,6.619-44.537,5.357-66.612C1137.913,215.708,1128.646,216.935,1128.896,221.328z"/>
	</g>
</g>
<g>
	<path fill="#FFFFFF" d="M1030.332,169.743c39.08,25.263,31.268,106.884-25.405,91.336
		C952.162,249.419,975.61,146.425,1030.332,169.743z"/>
	<g>
		<path fill="#660000" d="M1025.545,171.626c24.276,16.054,33.138,57.255,13.618,80.292c-9.86,11.637-26.601,9.948-39.158,3.686
			c-12.604-6.287-18.312-20.555-19.409-33.845c-1.174-14.215,2.855-29.569,11.481-40.989c3.701-4.9,8.454-8.977,14.273-11.069
			c6.368-2.289,13.896-0.174,19.846,2.292c2.651,1.099,12.033-2.938,8.271-4.497c-14.082-5.834-29.539-4.435-42.162,4.189
			c-11.326,7.738-17.978,21.213-20.739,34.308c-2.822,13.386-1.733,28.329,5.367,40.246c7.838,13.151,22.781,18.802,37.577,19.269
			c11.25,0.355,22.846-3.102,31.175-10.873c7.672-7.157,11.813-17.059,13.379-27.297c3.354-21.928-4.99-46.94-23.945-59.476
			C1032.391,166.055,1023.343,170.169,1025.545,171.626z"/>
	</g>
</g>
<g>
	<path fill="#FFFFFF" d="M905.265,169.743c46.498,12.594,66.44,93.279-1.957,91.336C846.64,259.138,848.593,152.253,905.265,169.743
		z"/>
	<g>
		<path fill="#660000" d="M901.098,171.876c26.529,7.456,49.006,40.419,39.232,67.915c-5.397,15.187-20.76,19.861-35.605,18.888
			c-14.291-0.938-25.562-10.725-31.719-23.154c-6.925-13.978-8.118-31.334-3.073-46.083c2.203-6.441,5.942-12.536,11.563-16.513
			C887.305,168.818,894.675,169.96,901.098,171.876c2.261,0.674,5.168-0.168,7.186-1.203c0.986-0.505,3.442-2.379,1.148-3.064
			c-13.568-4.045-28.391-2.127-39.286,7.313c-9.512,8.241-12.992,21.666-13.461,33.757c-0.524,13.562,3.325,27.359,11.419,38.295
			c9.144,12.354,23.185,16.784,38.05,16.411c13.274-0.334,27.521-4.198,37.127-13.804c7.578-7.577,10.063-18.48,9.323-28.878
			c-1.698-23.902-20.175-46.633-43.172-53.096c-2.288-0.643-5.142,0.155-7.186,1.203
			C901.289,169.302,898.778,171.224,901.098,171.876z"/>
	</g>
</g>
<g>
	<path fill="#FFF5E3" d="M1028.71,76.465c39.086,9.715,72.308,0,97.713,44.694c1.951,13.605-5.866,71.903-19.545,81.62
		c-25.403,15.545-31.263-13.604-37.128-25.263c-3.91-5.83-3.91-23.321-9.77-27.206c-9.771-5.83-9.771,13.603-17.586,11.659
		c-23.452-5.831-23.452-21.376-52.766-7.774c-23.451,13.604-17.586,27.208-41.038,13.604
		c-21.494-13.604-17.586-27.206-46.898-17.489c-13.682,3.885-33.22,34.977-42.995,5.829c-23.447,9.717-25.402,97.165-60.574,75.789
		c-25.405-13.604-11.727-95.221,1.95-112.712c9.775-25.262,31.271-23.319,54.716-31.092L1028.71,76.465z"/>
	<g>
		<path fill="#660000" d="M1024.579,78.733c19.534,4.757,40.261,4.491,59.379,10.862c9.747,3.249,18.177,8.878,25.265,16.272
			c4.368,4.558,7.999,9.792,11.23,15.195c1.576,2.635,1.18,6.074,1.118,9.074c-0.37,18.066-3.707,36.852-9.16,54.052
			c-1.813,5.717-4.332,14.907-9.91,18.196c-8.155,4.809-14.55,0.062-18.968-7.188c-3.786-6.211-5.327-13.541-9.067-19.72
			c-4.624-7.638-2.97-17.742-8.008-25.373c-4.424-6.701-15.418-2.866-19.262,2.329c-1.865,2.521-2.942,5.523-4.956,7.948
			c-0.427,0.514,5.179-0.383,1.58-1.422c-1.246-0.36-2.464-0.809-3.68-1.258c-2.478-0.916-4.851-2.097-7.178-3.338
			c-7.132-3.803-13.021-7.756-21.354-8.133c-11.767-0.532-24.253,5.508-33.385,12.347c-3.951,2.959-7.38,6.542-10.852,10.031
			c-0.568,0.571-3.265,2.624-2.517,2.386c0.956-0.305-1.221-0.378-1.318-0.403c-1.638-0.414-3.2-1.139-4.734-1.828
			c-9.865-4.431-16.383-12.171-24.322-19.068c-4.674-4.06-10.312-5.435-16.406-5.163c-8.321,0.372-17.689,2.832-24.837,7.18
			c-5.923,3.603-10.917,8.504-16.749,12.23c-2.314,1.479-3.431,2.363-5.47,1.584c-4.021-1.537-5.917-7.134-7.201-10.759
			c-0.799-2.254-5.621-0.955-7.035-0.332c-11.864,5.225-16.775,18.729-21.056,30.029c-5.185,13.69-8.935,28.745-17.143,41.038
			c-1.449,2.17-3.12,4.231-5.145,5.886c-0.547,0.447-1.695,1.129-1.98,1.249c0.112-0.047-0.436,0.147-1.256,0.081
			c-5.753-0.464-11.313-4.71-14.299-9.458c-8.572-13.637-7.554-33.367-6.228-48.678c1.429-16.506,4.558-33.815,11.392-49.012
			c1.023-2.276,2.203-4.466,3.716-6.456c1.643-2.161,2.396-5.351,3.837-7.715c1.549-2.54,3.521-4.863,5.732-6.845
			c7.494-6.717,18.331-8.345,27.771-10.616c2.634-0.634,5.257-1.309,7.868-2.031c0.741-0.205,6.073-1.464,2.777-1.243
			c0.6-0.04,1.199-0.081,1.799-0.121c3.192-0.214,6.385-0.428,9.577-0.642c12.309-0.825,24.616-1.65,36.925-2.475
			c41.851-2.806,83.701-5.611,125.552-8.417c2.298-0.154,5.244-0.754,6.799-2.646c1.503-1.828-1.273-2.534-2.623-2.443
			c-49.771,3.336-99.542,6.672-149.313,10.009c-7.849,0.526-15.698,1.052-23.548,1.579c-6.138,0.412-12.262,3.008-18.248,4.449
			c-9.884,2.378-20.017,4.647-28.737,10.114c-3.989,2.5-7.415,5.657-10.281,9.385c-2.882,3.748-4.421,8.217-6.896,12.178
			c-3.513,5.619-5.685,12.042-7.571,18.353c-5.141,17.197-7.585,35.519-7.421,53.453c0.119,12.994,1.451,31.607,13.403,39.701
			c10.956,7.42,24.544,5.363,33.245-4.462c9.295-10.497,13.301-25.839,17.923-38.743c2.48-6.926,5.013-13.862,8.291-20.458
			c1.939-3.902,5.444-10.082,8.968-11.634c-2.345-0.111-4.689-0.221-7.035-0.332c3.064,8.651,8.017,14.692,17.812,13.225
			c8.637-1.294,15.728-7.404,22.376-12.581c6.655-5.182,15.947-10.412,24.758-8.244c7.397,1.82,12.841,10.163,18.423,14.827
			c7.526,6.289,18.095,12.985,28.324,10.709c8.867-1.973,14.233-10.439,21.008-15.777c8.504-6.699,19.23-10.814,29.374-5.864
			c8.05,3.929,15.147,9.203,24.219,10.77c8.646,1.493,12.563-5.673,16.319-11.708c0.396-0.638,0.857-1.22,1.337-1.795
			c1.202-1.441-5.322-0.09-2.538,1.043c1.777,0.724,2.653,3.027,3.32,4.636c1.945,4.689,2.566,9.954,3.699,14.873
			c1.6,6.942,5.348,13.95,8.271,20.457c2.989,6.656,6.966,13.307,13.88,16.383c8.159,3.629,20.004-0.06,26.746-5.138
			c5.307-3.997,8.088-10.678,10.337-16.711c6.381-17.118,9.233-36.175,10.358-54.344c0.202-3.267,0.313-6.547,0.179-9.819
			c-0.21-5.082-4.596-9.896-7.53-13.867c-6.951-9.412-16.088-16.747-26.766-21.494c-20.183-8.973-43.448-7.733-64.642-12.894
			c-2.421-0.589-5.033-0.09-7.212,1.107C1024.69,75.821,1022.134,78.137,1024.579,78.733z"/>
	</g>
</g>
<g>
	<path fill="#FFF5E3" d="M985.721,86.18c-21.494-5.828-62.533-7.771-78.167,7.774c15.634,19.435,127.023,19.435,119.205-9.714
		c-5.865-23.322-154.378-11.661-168.062,3.884c-54.714,56.357,130.932,40.809,154.384,40.809c15.629,0,68.394,5.832,76.212-13.601
		c7.816-17.491-23.967-30.535-39.602-32.478"/>
	<g>
		<path fill="#660000" d="M989.917,84.158c-14.88-3.939-30.647-5.078-45.978-4.069c-14.093,0.928-30.451,4.117-41.031,14.212
			c-0.523,0.5-0.622,0.881-0.173,1.417c7.067,8.438,21.949,10.374,32.067,11.874c16.249,2.409,32.922,2.686,49.267,1.136
			c13.634-1.292,28.926-3.646,40.581-11.368c6.414-4.249,11.156-13.146,3.955-19.076c-7.859-6.472-21.073-7.25-30.689-8.211
			c-16.25-1.624-32.713-1.391-49.006-0.643c-16.936,0.777-33.863,2.408-50.616,5.019c-12.438,1.939-25.259,4.273-36.87,9.309
			c-7.952,3.449-15.101,11.593-17.365,19.996c-2.094,7.767,2.868,13.681,9.296,17.321c9.664,5.471,21.394,7.39,32.238,8.887
			c14.497,2.001,29.146,2.706,43.768,2.978c25.169,0.467,50.289-0.764,75.429-1.725c4.258-0.163,5.526-0.185,10.317-0.009
			c8.288,0.302,16.564,0.71,24.86,0.688c16.276-0.044,36.941-0.494,50.074-11.549c8.889-7.482,5.653-18.413-1.989-25.206
			c-9.274-8.243-22.942-12.798-35.055-14.429c-2.265-0.305-11.813,3.587-6.611,4.287c12.813,1.726,44.234,12.129,38.239,30.267
			c-2.288,6.921-9.359,9.344-15.866,10.604c-9.098,1.762-18.539,1.83-27.771,1.708c-11.064-0.146-22.068-0.998-33.133-0.56
			c-10.888,0.431-21.771,0.957-32.661,1.292c-28.753,0.885-58.198,1.428-86.68-3.211c-14.213-2.315-43.735-8.903-31.656-29.223
			c2.198-3.699,5.577-7.942,8.699-9.785c0.759-0.448,2.323-1.081,4.046-1.703c2.371-0.857,4.505-1.436,7.243-2.143
			c14.236-3.677,29.038-5.442,43.646-6.852c17.118-1.652,34.352-2.463,51.549-2.111c13.178,0.27,27.053,0.81,39.691,4.907
			c6.783,2.199,13.424,7.41,8.782,15.098c-5.148,8.527-20.539,9.867-29.185,10.889c-15.601,1.844-31.656,1.627-47.219-0.496
			c-10.02-1.367-24.743-3.137-31.739-11.488c-0.058,0.473-0.115,0.945-0.173,1.417c8.534-8.143,21.557-9.167,32.756-9.533
			c12.213-0.399,24.759,1.001,36.569,4.128c2.243,0.594,5.159-0.314,7.164-1.282C989.582,86.49,992.187,84.759,989.917,84.158
			L989.917,84.158z"/>
	</g>
</g>
<path fill="#660000" stroke="#660000" stroke-width="6.062" stroke-miterlimit="10" d="M1011.862,208.785
	c4.154,11.676-0.318,22.159-9.987,23.411c-9.669,1.25-20.871-7.202-25.02-18.88c-4.155-11.677,0.315-22.16,9.979-23.41
	C996.507,188.653,1007.712,197.104,1011.862,208.785z"/>
<path fill="#660000" stroke="#660000" stroke-width="5.3005" stroke-miterlimit="10" d="M903.8,207.563
	c0,12.484-9.358,22.604-20.908,22.604c-11.543,0-20.903-10.12-20.903-22.604c0-12.484,9.36-22.604,20.903-22.604
	C894.441,184.958,903.8,195.079,903.8,207.563z"/>
<g>
	<g>
		<path fill="#660000" d="M937.901,296.899c12.889,13.638,32.521,9.609,45.456-1.918c5.182-4.618-2.86-8.689-6.902-5.088
			c-8.353,7.443-20.458,11.633-29.214,2.367C943.854,288.678,934.192,292.975,937.901,296.899L937.901,296.899z"/>
	</g>
</g>
<path fill="#FFBDC9" d="M889.443,285.127c0,6.613-14.626,11.97-32.667,11.97s-32.667-5.356-32.667-11.97
	c0-6.606,14.626-11.967,32.667-11.967S889.443,278.521,889.443,285.127z"/>
<path fill="#FFBDC9" d="M1096.494,285.127c0,6.613-14.627,11.97-32.668,11.97s-32.668-5.356-32.668-11.97
	c0-6.606,14.627-11.967,32.668-11.967S1096.494,278.521,1096.494,285.127z"/>
<g>
	<g>
		<path fill="#660000" d="M837.323,337.314c6.489,17.269,6.828,34.815-2.989,50.924c-3.36,5.514,11.749,3.454,14.012-0.258
			c10.605-17.4,11.294-35.844,4.192-54.742C850.775,328.549,835.754,333.139,837.323,337.314L837.323,337.314z"/>
	</g>
</g>
<g>
	<g>
		<path fill="#660000" d="M1054.257,343.784c-4.337,17.227,11.289,37.514,27.077,42.935c3.058,1.051,7.891-0.72,10.623-1.983
			c1.502-0.693,5.016-2.734,1.906-3.802c-13.979-4.801-28.412-24.808-24.616-39.888
			C1070.023,337.963,1055.189,340.077,1054.257,343.784L1054.257,343.784z"/>
	</g>
</g>
<g>
	<g>
		<path fill="#660000" d="M1128.526,227.925c0.4,5.112,3.855,9.675,6.894,13.583c4.861,6.252,10.711,11.76,16.518,17.115
			c10.406,9.598,22.384,18.03,31.852,28.587c2.25,2.509,13.051-1.516,10.678-4.162c-8.918-9.944-20.148-17.999-30.04-26.935
			c-5.74-5.186-11.348-10.555-16.4-16.42c-3.554-4.125-7.646-9.168-8.09-14.826C1139.709,221.964,1128.234,224.207,1128.526,227.925
			L1128.526,227.925z"/>
	</g>
</g>
<g>
	<g>
		<path fill="#660000" d="M792.195,246.724c-13.289-3.553-20.661-21.371-25.249-32.776c-5.324-13.238-10.029-28.554-9.646-42.984
			c0.043-1.623-11.324-0.167-11.41,3.058c-0.396,14.881,4.617,30.484,10.102,44.118c4.916,12.222,12.809,29.173,26.803,32.913
			c2.435,0.651,5.787-0.486,7.967-1.491C791.736,249.111,794.651,247.38,792.195,246.724L792.195,246.724z"/>
	</g>
</g>
</svg>
